<?xml version="1.0" standalone="no"?>
<!DOCTYPE svg PUBLIC "-//W3C//DTD SVG 20010904//EN"
 "http://www.w3.org/TR/2001/REC-SVG-20010904/DTD/svg10.dtd">
<svg version="1.0" xmlns="http://www.w3.org/2000/svg"
 width="391.000000pt" height="433.000000pt" viewBox="0 0 391.000000 433.000000"
 preserveAspectRatio="xMidYMid meet">
<metadata>
Created by potrace 1.16, written by Peter Selinger 2001-2019
</metadata>
<g transform="translate(0.000000,433.000000) scale(0.100000,-0.100000)"
fill="#000000" stroke="none">
<path d="M2035 4306 c-71 -20 -105 -61 -105 -127 0 -59 9 -80 59 -133 l36 -39
-44 24 c-51 28 -81 76 -81 131 0 21 -3 38 -6 38 -16 0 -73 -43 -88 -65 -9 -13
-16 -42 -16 -64 0 -33 7 -48 38 -80 l39 -41 -19 -27 c-35 -51 -105 -197 -127
-265 -43 -129 -62 -247 -68 -419 -4 -115 -2 -172 6 -186 15 -28 136 -88 207
-103 31 -7 96 -10 145 -8 l89 3 0 -47 c0 -38 -4 -48 -20 -53 -24 -8 -33 -39
-29 -99 l4 -44 -60 -5 c-80 -8 -310 -64 -354 -87 -46 -23 -82 -57 -115 -107
-15 -22 -50 -55 -79 -74 -69 -44 -249 -219 -302 -294 -55 -78 -95 -163 -95
-204 0 -23 17 -57 59 -119 107 -157 225 -278 324 -334 38 -22 45 -36 26 -55
-8 -8 -46 -1 -137 23 -204 54 -330 77 -427 78 -78 0 -96 -3 -135 -24 -66 -37
-75 -70 -60 -235 12 -146 61 -444 115 -704 20 -96 34 -179 31 -186 -4 -12
-268 -129 -359 -159 -91 -30 -147 -69 -147 -102 0 -8 16 -22 36 -30 30 -13
104 -16 423 -17 439 -2 482 2 538 58 39 39 40 55 12 137 -43 129 -80 365 -93
600 l-7 106 28 6 c158 32 504 42 618 18 160 -34 265 -92 337 -187 44 -58 168
-297 168 -323 0 -16 -17 -23 -97 -41 -282 -62 -520 -55 -802 25 -28 8 -28 22
11 -267 l21 -157 106 -17 c474 -75 961 25 1366 280 129 81 186 126 309 245
408 394 627 964 586 1528 -29 409 -163 755 -415 1077 -64 81 -265 285 -281
285 -5 0 -15 -24 -22 -52 -17 -75 -84 -206 -132 -261 l-42 -47 85 -90 c85 -89
186 -228 234 -324 14 -27 42 -73 63 -100 107 -145 225 -388 299 -621 55 -171
58 -197 31 -265 -47 -120 -192 -288 -326 -380 -39 -26 -59 -50 -84 -98 -55
-105 -149 -230 -255 -337 -92 -93 -152 -143 -158 -134 -2 2 -42 94 -89 204
-107 252 -109 239 53 305 304 123 544 285 642 433 48 72 53 96 28 144 -11 22
-45 113 -76 203 -82 237 -149 361 -260 480 -29 30 -66 76 -83 101 -42 62 -137
149 -198 179 -43 22 -62 25 -155 25 -72 0 -105 3 -102 11 2 6 -1 23 -6 37 -8
20 -18 27 -36 27 -14 0 -28 7 -32 16 -6 16 14 235 24 261 3 8 23 23 45 34 99
51 159 143 161 249 1 40 -4 65 -17 84 -17 26 -22 28 -68 24 -34 -4 -64 -15
-96 -38 l-47 -32 30 32 c41 44 108 74 150 66 39 -8 80 -52 90 -97 17 -77 -43
-230 -116 -292 -21 -19 -39 -37 -39 -40 0 -19 80 -5 121 22 137 86 206 263
196 501 -11 256 -90 412 -261 510 -169 96 -575 167 -721 126z m1047 -2350 c60
-84 68 -100 54 -108 -29 -16 -104 -85 -209 -191 -75 -77 -119 -112 -168 -137
l-67 -34 -37 33 c-21 18 -49 38 -62 44 -25 11 -25 13 -20 102 10 175 119 403
266 558 l55 58 58 -113 c32 -62 91 -157 130 -212z m-1446 -56 c-3 -41 -13
-111 -22 -154 l-18 -79 -32 37 c-18 21 -49 72 -70 114 -21 42 -53 93 -71 113
l-33 36 60 37 c32 20 85 63 117 96 l58 59 8 -92 c4 -51 6 -126 3 -167z"/>
<path d="M1463 3840 c-603 -158 -1095 -592 -1323 -1170 -92 -232 -133 -449
-133 -715 -1 -400 104 -754 319 -1080 65 -99 167 -226 229 -285 l47 -45 -5 35
c-3 19 -29 166 -56 325 -53 306 -76 488 -65 529 3 13 -3 57 -15 97 -148 537
-9 1090 373 1487 163 170 349 297 542 372 l90 35 12 76 c14 88 48 205 86 298
14 36 26 66 26 68 0 5 -13 3 -127 -27z"/>
</g>
</svg>
