<?xml version="1.0" encoding="UTF-8"?>
<svg version="1.1" xmlns="http://www.w3.org/2000/svg" width="3600" height="2100">
<path d="M0 0 C4.89793855 0.02556614 9.79545768 0.02808153 14.69344428 0.01632341 C15.75905361 0.01379506 15.75905361 0.01379506 16.84619039 0.01121564 C18.2915873 0.00769692 19.73698409 0.00413053 21.18238077 0.00051714 C34.57975229 -0.03048138 47.97628167 0.00462312 61.37351474 0.06432117 C72.7452008 0.11343381 84.11564948 0.10488691 95.4873133 0.0542148 C108.85291129 -0.00531868 122.21778056 -0.02746368 135.58349279 0.0059497 C137.02211054 0.00945192 138.46072841 0.01291004 139.89934638 0.01632341 C140.60626519 0.01802044 141.313184 0.01971747 142.04152459 0.02146593 C146.90529945 0.03076709 151.76858684 0.01515852 156.63228706 -0.01095168 C183.30083615 -0.14155294 208.99174831 0.33542378 235.00928596 6.70460542 C235.97046679 6.93948773 236.93164762 7.17437004 237.92195514 7.41637 C247.38874737 9.79837152 256.18387067 12.07499834 263.79639533 18.48829683 C265.08078498 19.38475923 265.08078498 19.38475923 266.39112189 20.29933199 C267.06626838 20.78708101 267.74141486 21.27483003 268.43702033 21.77735933 C269.57784064 22.60107027 269.57784064 22.60107027 270.74170783 23.44142183 C271.88252814 24.26899995 271.88252814 24.26899995 273.04639533 25.11329683 C274.21041877 25.95247652 274.21041877 25.95247652 275.39795783 26.80860933 C276.89089877 27.88882598 278.37972749 28.97475582 279.86377814 30.06715425 C281.39214424 31.19103235 282.93545796 32.29458099 284.48389533 33.39064058 C287.75134243 36.35452418 290.07020713 39.79296809 292.54639533 43.42579683 C293.25795783 44.45156831 293.25795783 44.45156831 293.98389533 45.49806245 C295.01140073 46.98118537 296.0309104 48.46986778 297.04395393 49.9629062 C298.28749949 51.75494233 299.57094723 53.5195812 300.88086799 55.26368745 C307.72116476 64.57396777 312.15432007 74.52002258 316.67139533 85.11329683 C317.49405064 87.01286514 318.3182207 88.91177808 319.14380744 90.81007417 C320.85362822 94.7446067 322.5569791 98.68184497 324.25586799 102.62110933 C327.84154273 110.92063243 331.51096039 119.18290573 335.17691901 127.44718965 C337.15582025 131.91086858 339.12879959 136.37715929 341.10108283 140.84376558 C341.68467315 142.16539957 341.68467315 142.16539957 342.28005317 143.51373323 C346.90902473 154.0021792 351.51032917 164.50275915 356.11356452 175.00251802 C361.30709262 186.84641755 366.53445098 198.67464224 371.79639533 210.48829683 C377.43993206 223.15866905 383.03964237 235.84759817 388.60889533 248.55079683 C394.79666523 262.66409745 401.00275556 276.76908638 407.23389533 290.86329683 C407.62727088 291.75308229 408.02064643 292.64286775 408.42594245 293.55961641 C410.41875952 298.06689868 412.41194235 302.5740191 414.40528205 307.08107027 C418.7670935 316.94393076 423.12444217 326.80876405 427.48261359 336.67323335 C428.66921102 339.35899593 429.85583818 342.04474538 431.04248908 344.73048433 C431.62999946 346.06019258 431.62999946 346.06019258 432.22937873 347.41676363 C434.61348468 352.81230734 436.99862646 358.20739188 439.38456061 363.6021274 C447.91984961 382.90102446 456.43655457 402.20777939 464.91242316 421.53285249 C472.62176639 439.10858782 480.37583673 456.66438767 488.14025214 474.21585115 C490.68095449 479.96084197 493.21621169 485.70820827 495.74791816 491.4571689 C497.48952669 495.41183636 499.23254652 499.36588113 500.97562507 503.31990083 C501.80515801 505.20269173 502.634011 507.08578237 503.4621363 508.96919283 C504.61212794 511.58442762 505.76455904 514.19857512 506.91748908 516.81251558 C507.25208137 517.57518236 507.58667365 518.33784914 507.9314051 519.12362703 C510.08069527 523.98835375 512.38643459 528.74704472 514.79639533 533.48829683 C515.25787971 532.4348105 515.71936408 531.38132417 516.19483283 530.29591402 C524.35357414 511.67475554 532.52322644 493.05894847 540.79639533 474.48829683 C546.4217498 461.86070507 551.99854472 449.212624 557.54639533 436.55079683 C563.89956535 422.05251498 570.29801874 407.57505346 576.73389533 393.11329683 C583.29423767 378.37150106 589.84049933 363.62369343 596.35889533 348.86329683 C596.74791022 347.98247438 597.13692512 347.10165193 597.53772834 346.19413789 C599.8944394 340.8577032 602.25049595 335.52097973 604.60633186 330.18415865 C608.23124022 321.97262014 611.85714805 313.7615233 615.48389533 305.55079683 C615.88036262 304.65312593 616.2768299 303.75545503 616.68531135 302.83058199 C622.38240347 289.9326913 628.1032078 277.04554443 633.83786872 264.16432222 C639.11360488 252.31038969 644.33877889 240.4347939 649.54639533 228.55079683 C655.8997261 214.05258476 662.29801825 199.57505456 668.73389533 185.11329683 C675.29423818 170.37149992 681.84015084 155.62354018 688.35889533 140.86329683 C688.7449192 139.98945345 689.13094306 139.11561006 689.52866462 138.21528658 C693.57686714 129.05127491 697.6218371 119.88584652 701.66149238 110.71806367 C703.37641775 106.82674867 705.09254901 102.93596607 706.80881599 99.04524263 C707.61860896 97.20855636 708.42781621 95.37161171 709.23636726 93.53437837 C711.41186754 88.59112988 713.59632391 83.65211048 715.7998133 78.72126802 C716.45196273 77.26004272 717.10148381 75.79764084 717.74805549 74.33393892 C721.2669982 66.38618347 724.99365101 59.03590195 730.29639533 52.11329683 C730.86463019 51.35291109 731.43286506 50.59252534 732.01831916 49.80909761 C733.12172064 48.3365254 734.23052222 46.86797774 735.34571174 45.40431245 C736.53626481 43.83186875 737.69277642 42.23370609 738.83936408 40.62892183 C743.05437458 34.822019 748.02350545 30.70807421 753.79639533 26.48829683 C754.77769416 25.76126558 754.77769416 25.76126558 755.77881721 25.01954683 C757.98349721 23.39147544 760.20008677 21.78109401 762.42139533 20.17579683 C763.12570686 19.659769 763.83001838 19.14374117 764.55567268 18.61207613 C765.59135383 17.87598116 765.59135383 17.87598116 766.64795783 17.12501558 C767.25462287 16.68890962 767.86128791 16.25280367 768.48633674 15.80348238 C799.53499679 -1.87344974 840.85214661 -0.04143455 875.16648181 0.10353777 C880.1345874 0.12394698 885.10235371 0.12395627 890.07048133 0.11120065 C890.78975559 0.1093796 891.50902985 0.10755855 892.2501003 0.10568231 C893.71337432 0.10191103 895.17664825 0.09810316 896.63992208 0.0942592 C910.22271326 0.06091925 923.80483007 0.08852828 937.38753718 0.13804698 C948.92071259 0.17857936 960.45274612 0.16384753 971.98584846 0.10914644 C985.52865237 0.04492387 999.07076393 0.01837441 1012.61371258 0.04662003 C1014.07149037 0.04955244 1015.52926827 0.05243332 1016.98704627 0.05526193 C1018.06163291 0.057365 1018.06163291 0.057365 1019.15792836 0.05951055 C1024.09029892 0.06670816 1029.02216097 0.04856652 1033.95443824 0.01961359 C1065.03366642 -0.14895593 1094.12482812 1.34933398 1124.20197394 9.74154695 C1124.97744465 9.95703915 1125.75291535 10.17253136 1126.55188516 10.39455362 C1133.23007883 12.37667711 1138.73770831 15.56397874 1144.35498908 19.69532808 C1145.55285041 20.57608003 1145.55285041 20.57608003 1146.77491096 21.47462495 C1147.99210822 22.37858003 1147.99210822 22.37858003 1149.23389533 23.30079683 C1150.04149299 23.89183199 1150.84909064 24.48286714 1151.68116096 25.09181245 C1160.01565868 31.2503414 1167.06381499 37.14630184 1172.85889533 45.80079683 C1173.89102765 47.31410404 1174.92357735 48.82712668 1175.95655158 50.33985933 C1176.44397834 51.05947847 1176.9314051 51.77909761 1177.43360236 52.52052339 C1179.13348354 54.97502756 1180.97159539 57.31336766 1182.79639533 59.67579683 C1189.3036843 69.10854675 1190.8964175 82.55494082 1193.51612189 93.63136324 C1194.0513251 95.88404634 1194.59958243 98.13332012 1195.14795783 100.38282808 C1195.49511422 101.8422729 1195.84149668 103.30190209 1196.18702033 104.76173433 C1196.43068336 105.74948351 1196.43068336 105.74948351 1196.67926887 106.75718721 C1198.58672373 114.98147197 1197.75697554 121.97834553 1195.95264533 130.06642183 C1195.75241767 130.97832277 1195.55219001 131.89022371 1195.34589484 132.82975801 C1194.68060558 135.80370218 1193.99323381 138.77159112 1193.29639533 141.73829683 C1192.93692817 143.27094179 1192.93692817 143.27094179 1192.57019904 144.83454927 C1187.85763039 164.57415476 1180.73437539 182.26160393 1171.80671027 200.41450533 C1170.15156017 203.81189764 1168.55706313 207.23706948 1166.96436408 210.66407808 C1166.34047846 212.00516879 1165.71653667 213.34623337 1165.09253791 214.68727144 C1164.78571082 215.34677797 1164.47888373 216.0062845 1164.16275886 216.68577608 C1162.92911733 219.32876093 1161.68352875 221.96603138 1160.43785957 224.60336336 C1156.33182732 233.30000738 1152.32765218 242.04076909 1148.35889533 250.80079683 C1148.05104102 251.48024355 1147.74318671 252.15969026 1147.42600349 252.85972627 C1146.17326859 255.62500468 1144.92067987 258.39034915 1143.66851142 261.15588411 C1140.39791615 268.37570097 1137.10103901 275.5834391 1133.80234626 282.79045137 C1128.03504207 295.39110909 1122.2819711 307.99816434 1116.54639533 320.61329683 C1116.23170295 321.30512056 1115.91701057 321.99694429 1115.59278205 322.70973238 C1115.28743537 323.38109224 1114.98208869 324.0524521 1114.66748908 324.7441562 C1114.37152839 325.39450838 1114.07556769 326.04486055 1113.7706385 326.71492036 C1112.93668704 328.5529682 1112.10957149 330.39411289 1111.28272346 332.23536714 C1110.36199003 334.25045455 1109.41276787 336.25310307 1108.41944221 338.23341402 C1108.03336799 339.01619722 1107.64729377 339.79898042 1107.24952033 340.60548433 C1106.74920295 341.57010591 1106.74920295 341.57010591 1106.23877814 342.5542148 C1105.45188071 345.9945026 1107.09957533 348.34450849 1108.86863044 351.24830659 C1110.24878249 353.39213901 1111.66750146 355.50607502 1113.09717658 357.61720308 C1113.90745055 358.82631853 1113.90745055 358.82631853 1114.7340937 360.05986055 C1115.90688212 361.80908775 1117.08172198 363.55694091 1118.25837043 365.30357393 C1121.43025753 370.01244375 1124.58696628 374.73147818 1127.74561408 379.44923433 C1128.73192817 380.92111459 1128.73192817 380.92111459 1129.73816779 382.42272981 C1137.02332539 393.30258404 1144.22577632 404.23660082 1151.42139533 415.17579683 C1153.76752722 418.7423494 1156.11377416 422.30882604 1158.46045783 425.87501558 C1159.01281608 426.71448228 1159.56517432 427.55394899 1160.1342707 428.41885408 C1163.32620949 433.26642762 1166.53246736 438.10397983 1169.75733283 442.92970308 C1175.51847915 451.55076535 1181.21290174 460.21566868 1186.91315559 468.87706026 C1195.54967617 481.99866551 1204.1886916 495.117948 1212.92139533 508.17579683 C1223.1299421 523.4459361 1233.21164318 538.79947996 1243.30663398 554.14480623 C1249.68942623 563.84696422 1256.07748646 573.54564817 1262.46762946 583.24296602 C1264.30454311 586.0308077 1266.14093755 588.81899086 1267.97730353 591.60719331 C1272.8880257 599.06091965 1277.8023672 606.51180585 1282.76123908 613.93360933 C1288.52073096 622.55399102 1294.2142656 631.21773401 1299.9137049 639.87788423 C1309.26476085 654.08514731 1318.6334017 668.27924981 1328.0888758 682.41725191 C1335.82773814 694.00385275 1343.47312039 705.65196885 1351.12159064 717.29835542 C1356.64997494 725.71522893 1362.1934411 734.12082158 1367.79639533 742.48829683 C1370.22599643 739.50155239 1372.53631521 736.50307155 1374.66748908 733.29689058 C1375.22597541 732.45851656 1375.78446174 731.62014253 1376.35987189 730.75636324 C1377.2875135 729.35523286 1377.2875135 729.35523286 1378.23389533 727.92579683 C1379.25241584 726.39318208 1379.25241584 726.39318208 1380.29151252 724.82960542 C1388.03384478 713.16967481 1395.71743954 701.47069652 1403.41162971 689.77897676 C1412.79650456 675.51939399 1422.2458331 661.30438426 1431.73389533 647.11329683 C1439.09412568 636.103767 1446.41102079 625.08290125 1453.45020393 613.86427339 C1459.62574174 604.07613077 1466.09704882 594.48380767 1472.53022102 584.8641208 C1481.59019976 571.31609552 1490.58854581 557.7290563 1499.54639533 544.11329683 C1508.21415559 530.9400737 1516.9097075 517.78674919 1525.67139533 504.67579683 C1532.02263483 495.1702203 1538.33377248 485.64226662 1544.56128791 476.05494722 C1551.28530421 465.71355197 1558.07159851 455.41323074 1564.85889533 445.11329683 C1565.48716224 444.15982362 1566.11542915 443.20635042 1566.76273444 442.22398409 C1575.89651502 428.36622314 1585.06550314 414.53254403 1594.30445197 400.74464449 C1599.5036367 392.97790245 1604.6216334 385.16146177 1609.70742133 377.32000764 C1616.00361709 367.61664061 1622.3660438 357.95723476 1628.73389533 348.30079683 C1629.66942237 346.88137285 1629.66942237 346.88137285 1630.62384894 345.43327364 C1638.9361742 332.82270374 1647.28072039 320.23435944 1655.67139533 307.67579683 C1662.02236932 298.17003912 1668.33376928 288.64227154 1674.56128791 279.05494722 C1681.28530412 268.71355211 1688.07158284 258.41322026 1694.85889533 248.11329683 C1695.48782691 247.15882661 1696.11675849 246.2043564 1696.7647486 245.22096284 C1705.03000944 232.6810966 1713.32792357 220.16374914 1721.67139533 207.67579683 C1728.02530241 198.16564077 1734.33910306 188.63314293 1740.57007697 179.04176363 C1752.21803226 161.12910144 1764.01217739 143.31147175 1775.79639533 125.48829683 C1776.40336249 124.57012178 1777.01032966 123.65194673 1777.63568977 122.7059482 C1781.13673858 117.41135685 1784.64289207 112.12020145 1788.15586188 106.83351167 C1789.22545274 105.22298724 1790.29388894 103.61169519 1791.36100104 101.9995273 C1797.52593246 92.68933887 1803.84535086 83.52259762 1810.43335822 74.5056003 C1811.20087409 73.45506975 1811.20087409 73.45506975 1811.98389533 72.38331636 C1812.71295081 71.38688112 1812.71295081 71.38688112 1813.45673469 70.37031587 C1814.66378492 68.67459424 1815.79626078 66.92638092 1816.91846564 65.17335542 C1818.73623805 62.57430955 1820.26276102 61.06627367 1822.84327033 59.26954683 C1823.60639533 58.72942964 1824.36952033 58.18931245 1825.15577033 57.63282808 C1825.94467658 57.09013277 1826.73358283 56.54743745 1827.54639533 55.98829683 C1829.10418101 54.89525055 1830.661476 53.80150459 1832.21827033 52.70704683 C1832.90501838 52.2320273 1833.59176643 51.75700777 1834.29932502 51.2675937 C1835.74192003 50.23966719 1837.16547263 49.18103562 1838.52681831 48.04769929 C1843.58321994 43.94167648 1848.04889475 42.13978638 1854.37061408 40.75001558 C1855.25747398 40.53891649 1856.14433387 40.3278174 1857.05806831 40.11032137 C1859.86277673 39.44724991 1862.67281432 38.81124267 1865.48389533 38.17579683 C1867.38079284 37.73159383 1869.27728246 37.28564521 1871.17334846 36.8379062 C1876.04187667 35.69451839 1880.91461505 34.57369534 1885.79639533 33.48829683 C1887.10229621 33.18774385 1887.10229621 33.18774385 1888.43457893 32.88111909 C1901.17123782 30.76273123 1913.24901512 33.46166151 1925.56324103 36.5410312 C1928.38142613 37.24391625 1931.20591304 37.91479178 1934.03272346 38.58204683 C1935.85153096 39.02291046 1937.66990799 39.46555472 1939.48780158 39.91017183 C1940.73636687 40.20731081 1940.73636687 40.20731081 1942.01015571 40.51045259 C1949.11666119 42.31168139 1954.56197799 45.42168178 1960.46045783 49.80079683 C1961.67862189 50.70185152 1961.67862189 50.70185152 1962.92139533 51.62110933 C1963.74639533 52.2372812 1964.57139533 52.85345308 1965.42139533 53.48829683 C1966.25412971 54.1044687 1967.08686408 54.72064058 1967.94483283 55.35548433 C1969.54537083 56.54314469 1971.1419324 57.73618821 1972.73389533 58.93531831 C1974.34074767 60.1452127 1975.96061998 61.3378221 1977.58545783 62.52345308 C1980.38481887 65.01122446 1982.44295234 67.8565573 1984.54639533 70.92579683 C1985.11487189 71.73693941 1985.11487189 71.73693941 1985.69483283 72.5644687 C1986.54732076 73.78407643 1987.38738547 75.01241515 1988.21827033 76.24684175 C1989.39852906 77.92319624 1990.6509335 79.54915997 1991.93702033 81.14576753 C1999.2226886 90.61334167 2001.76108112 100.25034771 2004.29639533 111.80079683 C2004.5090705 112.7240677 2004.72174567 113.64733858 2004.94086555 114.59858736 C2008.24039 128.93195527 2010.31597409 142.72614746 2009.79639533 157.48829683 C2010.57241096 156.88243745 2011.34842658 156.27657808 2012.14795783 155.65235933 C2019.60287795 149.85902172 2027.1771504 144.27363314 2034.89258674 138.83302339 C2036.90981397 137.40818528 2038.92171212 135.97603237 2040.93311408 134.54298433 C2100.78887416 91.97053224 2166.380402 60.97913514 2237.79639533 43.48829683 C2238.82514777 43.23523775 2239.85390021 42.98217867 2240.91382697 42.72145113 C2295.3141515 29.35059032 2348.7303714 18.27040252 2404.98389533 18.23829683 C2406.05542853 18.23762209 2407.12696174 18.23694734 2408.23096564 18.23625215 C2428.20985584 18.25606954 2447.95284272 19.15583133 2467.79639533 21.48829683 C2468.82011237 21.60851198 2468.82011237 21.60851198 2469.86451057 21.73115572 C2494.16814352 24.6390412 2517.99909335 29.85187735 2541.79639533 35.48829683 C2542.93979377 35.75873811 2544.08319221 36.0291794 2545.26123908 36.30781587 C2576.52733725 43.72439351 2607.62146326 51.32258906 2637.79639533 62.48829683 C2639.00344123 62.92528902 2640.21048713 63.3622812 2641.45411018 63.81251558 C2661.2275529 71.0117026 2680.03047795 80.02829911 2698.79639533 89.48829683 C2699.78059455 89.98249117 2700.76479377 90.4766855 2701.77881721 90.98585542 C2729.59888788 105.03550821 2755.61817587 122.48975381 2780.68702033 140.94386324 C2782.88023441 142.54968178 2785.08611268 144.1365336 2787.29639533 145.71876558 C2801.47225048 155.86928432 2815.42550488 166.29042078 2828.79639533 177.48829683 C2829.30090217 177.90788667 2829.805409 178.32747652 2830.32520393 178.7597812 C2837.85196464 185.02255811 2845.16099844 191.47621156 2852.33448127 198.13966402 C2853.75151756 199.44689656 2855.1838987 200.73743421 2856.61670783 202.02735933 C2862.77758313 207.58389808 2868.7316761 213.31956085 2874.60889533 219.17579683 C2875.31425422 219.87656343 2876.01961311 220.57733003 2876.7463465 221.29933199 C2880.72121414 225.28592213 2884.51449326 229.37425716 2888.19068244 233.63746675 C2890.45745935 236.25027437 2892.81371709 238.76965577 2895.17139533 241.30079683 C2899.40950235 245.89389058 2903.45239726 250.60099905 2907.37061408 255.47267183 C2909.14999398 257.68471898 2910.94270086 259.88036522 2912.75342658 262.06642183 C2921.16723858 272.25754505 2929.04833346 282.78503766 2936.79639533 293.48829683 C2937.34827521 294.2493271 2937.9001551 295.01035738 2938.46875861 295.79444917 C2941.18013492 299.53497276 2943.88456255 303.28035608 2946.58155158 307.03126558 C2948.72016495 310.0034765 2950.87447018 312.96325392 2953.04248908 315.91407808 C2990.49902202 367.02693135 3019.67079998 423.73675284 3041.01374152 483.30616792 C3041.74415829 485.34265395 3042.48147944 487.37651802 3043.21973518 489.41017183 C3053.77665319 518.86632249 3060.5969749 549.53673095 3067.93195441 579.91529878 C3068.70822843 583.12387613 3069.49050536 586.33088717 3070.2763758 589.53712495 C3077.68046652 619.78942615 3083.40211 650.30532222 3087.10889533 681.23829683 C3087.25625129 682.45879732 3087.40360725 683.67929781 3087.55542853 684.93678316 C3090.2488604 709.00094799 3091.17787526 733.07278464 3091.11445335 757.26765855 C3091.10878888 759.46713109 3091.10598356 761.66659584 3091.10337165 763.86607393 C3091.06560422 785.77412143 3090.5934071 807.53263338 3088.04963019 829.31391939 C3087.78460496 831.58953377 3087.53007191 833.86617852 3087.2763758 836.14308199 C3082.6247921 877.36605512 3073.2359499 917.34989079 3063.48645881 957.62654146 C3062.57545411 961.40455998 3061.68194696 965.18653893 3060.78858283 968.96876558 C3041.73694059 1048.69144636 3007.17976221 1123.06396684 2949.29541877 1206.4448398 C2947.7407532 1208.56414775 2946.20741974 1210.69750118 2944.67920783 1212.83595308 C2933.54725252 1228.40565887 2922.16665884 1243.87289653 2909.79639533 1258.48829683 C2909.1249549 1259.28493745 2909.1249549 1259.28493745 2908.43995002 1260.09767183 C2901.86305609 1267.88990906 2895.12859153 1275.51112302 2888.18946174 1282.98194917 C2886.76249904 1284.5249495 2885.34673717 1286.07760349 2883.93311408 1287.63282808 C2874.71113261 1297.75335372 2865.3023082 1307.86988551 2854.83936408 1316.72657808 C2852.69128692 1318.57893525 2850.61050997 1320.49650967 2848.53223518 1322.42652925 C2843.43256007 1327.15872541 2838.23582257 1331.70022892 2832.81202033 1336.06251558 C2830.59997318 1337.84189548 2828.40432694 1339.63460236 2826.21827033 1341.44532808 C2813.26772137 1352.13683144 2799.7496659 1362.03169755 2786.05347541 1371.74220308 C2782.92970895 1373.95701756 2779.82572887 1376.19493873 2776.74170783 1378.46485933 C2754.45697535 1394.82430273 2731.0703581 1409.29732092 2706.79639533 1422.48829683 C2706.00023811 1422.92399995 2705.20408088 1423.35970308 2704.38379768 1423.80860933 C2685.01445795 1434.36738867 2664.95148417 1443.27803908 2644.35889533 1451.17579683 C2642.79365119 1451.78004488 2642.79365119 1451.78004488 2641.19678596 1452.39649995 C2618.70748795 1460.84173485 2595.72385012 1467.33800482 2572.41627601 1473.0462459 C2570.31873384 1473.56064601 2568.22199012 1474.07819279 2566.12543586 1474.59660371 C2533.23308362 1482.725917 2500.48395503 1490.49511944 2466.79639533 1494.48829683 C2466.1068476 1494.57079683 2465.41729987 1494.65329683 2464.70685676 1494.73829683 C2425.03566344 1499.41901703 2384.45120933 1499.20053305 2344.79639533 1494.48829683 C2343.76654517 1494.36808168 2343.76654517 1494.36808168 2342.71588996 1494.24543794 C2318.05682628 1491.34322301 2293.93622322 1486.21871366 2269.79639533 1480.48829683 C2268.6540644 1480.21785554 2267.51173347 1479.94741426 2266.33478644 1479.66877779 C2203.83247397 1464.83798708 2203.83247397 1464.83798708 2173.79639533 1453.48829683 C2173.12143012 1453.23410982 2172.44646491 1452.97992281 2171.75104621 1452.71803316 C2125.90555398 1435.38315009 2082.53562488 1412.1957897 2042.79639533 1383.48829683 C2041.22762293 1382.36296496 2039.6586134 1381.23796356 2038.08936408 1380.11329683 C2028.61027146 1373.30437115 2019.19604237 1366.40632614 2009.79639533 1359.48829683 C2009.76316169 1360.53485445 2009.76316169 1360.53485445 2009.72925666 1361.60255464 C2009.20791596 1371.46205018 2007.31600155 1380.87511955 2005.10767463 1390.47950777 C2004.69430184 1392.30773184 2004.29790107 1394.13988248 2003.91919807 1395.97560152 C2001.15162488 1409.3820481 1996.72654652 1419.03833896 1988.16182807 1429.73228487 C1986.16483631 1432.30051201 1984.43543819 1435.00570437 1982.67139533 1437.73829683 C1977.15005421 1445.09333106 1969.522699 1449.9517733 1961.92676643 1454.9863437 C1959.80442626 1456.41475264 1959.80442626 1456.41475264 1958.10743049 1458.03712495 C1951.2377223 1464.20008915 1942.03902027 1465.2945531 1933.29639533 1467.23829683 C1931.6175918 1467.62581281 1929.9392012 1468.01512231 1928.26123908 1468.40626558 C1924.54755443 1469.26968947 1920.83044713 1470.11599863 1917.10926154 1470.94648775 C1915.13323838 1471.40938841 1913.17534858 1471.94857557 1911.22300532 1472.50292238 C1906.66852707 1473.63677711 1902.33390431 1473.7903856 1897.65776923 1473.79609712 C1896.32707687 1473.80924388 1896.32707687 1473.80924388 1894.96950182 1473.82265624 C1892.01294607 1473.84924528 1889.05650934 1473.86174851 1886.09986213 1473.87403902 C1883.97142867 1473.8898588 1881.84300045 1473.90639778 1879.7145777 1473.92359956 C1872.7249748 1473.97594117 1865.73534895 1474.00669338 1858.74561408 1474.03517183 C1856.32212473 1474.04590437 1853.89863548 1474.0566594 1851.47514632 1474.06743654 C1841.3636183 1474.11072252 1831.25209638 1474.14816343 1821.14049914 1474.17068132 C1806.76069678 1474.202932 1792.3819949 1474.26868735 1778.00260708 1474.38348302 C1767.83880195 1474.46177688 1757.67528501 1474.50005321 1747.51118693 1474.51052245 C1741.47260748 1474.51772295 1735.43520206 1474.54057893 1729.39695647 1474.60672792 C1705.6453147 1474.85386873 1682.90435162 1474.31303168 1659.69019416 1468.86036714 C1658.79656334 1468.65295821 1657.90293253 1468.44554928 1656.98222199 1468.23185524 C1646.79525612 1465.79933962 1638.25636941 1462.9098869 1629.79639533 1456.48829683 C1628.33055889 1455.44359176 1626.86446206 1454.3992518 1625.39795783 1453.35548433 C1624.06932655 1452.3622357 1622.74373328 1451.36490867 1621.42139533 1450.36329683 C1620.74979377 1449.86442964 1620.07819221 1449.36556245 1619.38623908 1448.85157808 C1612.42074032 1443.61034817 1607.33229845 1437.75059808 1602.29639533 1430.67579683 C1601.46301643 1429.52240816 1601.46301643 1429.52240816 1600.61280158 1428.3457187 C1598.98292011 1426.07347218 1597.36534277 1423.8032232 1595.79639533 1421.48829683 C1595.42497413 1421.00146928 1595.05355292 1420.51464174 1594.67087653 1420.01306184 C1571.93832724 1387.84305013 1579.41812705 1332.35988123 1579.63074234 1295.2392418 C1579.68304367 1285.7559865 1579.67650714 1276.27300841 1579.66640165 1266.78964707 C1579.64694129 1247.35551706 1579.69707896 1227.92216618 1579.79639533 1208.48829683 C1579.34443793 1209.22387315 1578.89248054 1209.95944948 1578.42682746 1210.71731599 C1576.71955645 1213.49540123 1575.01181769 1216.27319785 1573.30378059 1219.05081209 C1572.57028138 1220.2438357 1571.83695875 1221.43696789 1571.10382941 1222.63021883 C1565.21431745 1232.21565891 1559.25030426 1241.75132255 1553.21875861 1251.24806245 C1543.67269762 1266.28319045 1534.22645169 1281.38023377 1524.79639533 1296.48829683 C1517.33967691 1308.43483966 1509.87776686 1320.37739319 1502.34766486 1332.27784761 C1495.78705374 1342.65403516 1489.2966656 1353.07425127 1482.79639533 1363.48829683 C1480.13029254 1367.75948256 1477.46352309 1372.03025108 1474.79639533 1376.30079683 C1474.1978675 1377.26010103 1473.59933967 1378.21940523 1472.98267463 1379.20777925 C1471.25741839 1381.97016426 1469.52769315 1384.729695 1467.79639533 1387.48829683 C1466.9244654 1388.88374727 1466.9244654 1388.88374727 1466.03492072 1390.30738863 C1462.29506344 1396.24989931 1458.37957478 1402.00986822 1454.23389533 1407.67579683 C1453.69571174 1408.4176523 1453.15752814 1409.15950777 1452.60303596 1409.9238437 C1451.52847212 1411.40185389 1450.44764835 1412.87533482 1449.36036018 1414.34400972 C1448.34381161 1415.73775715 1447.35272367 1417.15056358 1446.39258674 1418.58375581 C1442.53341739 1424.18069155 1437.98574776 1427.53478824 1432.29639533 1431.17579683 C1430.63826076 1432.26016011 1428.9819681 1433.3473458 1427.32764533 1434.43751558 C1426.23806525 1435.13880586 1426.23806525 1435.13880586 1425.12647346 1435.85426363 C1422.63797074 1437.5191385 1422.63797074 1437.5191385 1420.08838752 1440.01393159 C1416.34052733 1443.17034923 1412.29476215 1444.05962209 1407.59327033 1445.12892183 C1406.71543891 1445.34143587 1405.83760749 1445.55394991 1404.93317512 1445.77290376 C1403.08265469 1446.21749358 1401.2301909 1446.65406294 1399.37598518 1447.08302339 C1396.56490707 1447.7340099 1393.76067928 1448.40962333 1390.95655158 1449.08985933 C1389.14830659 1449.52101213 1387.33972249 1449.95074571 1385.53077033 1450.37892183 C1384.29118568 1450.67575868 1384.29118568 1450.67575868 1383.02655891 1450.97859224 C1373.46196858 1453.17636693 1365.40915566 1453.91548651 1355.80030158 1451.64454683 C1354.88610953 1451.43777315 1353.97191749 1451.23099947 1353.03002265 1451.01795992 C1351.10974133 1450.57849061 1349.19128246 1450.13098698 1347.27466682 1449.67579683 C1344.37531935 1448.99216939 1341.46904235 1448.34829501 1338.56006721 1447.70704683 C1328.4279399 1445.39439153 1320.16071001 1442.91246818 1311.79639533 1436.48829683 C1310.27293212 1435.50164858 1308.74310093 1434.52475167 1307.20655158 1433.55860933 C1296.68896847 1426.55715101 1289.734451 1419.16340962 1283.0576258 1408.47950777 C1281.24136692 1405.61202665 1279.26833177 1402.87611686 1277.29639533 1400.11329683 C1271.52490326 1391.74566764 1266.17738439 1383.11000286 1260.79639533 1374.48829683 C1259.56992009 1372.5260027 1258.3433546 1370.56376499 1257.11670783 1368.60157808 C1255.19855354 1365.53258052 1253.28080924 1362.46333033 1251.36426643 1359.39332613 C1247.52613702 1353.24692706 1243.67181253 1347.11124595 1239.79639533 1340.98829683 C1235.27053333 1333.83768016 1230.77751555 1326.66703217 1226.29639533 1319.48829683 C1219.83138788 1309.13265395 1213.32587912 1298.80337407 1206.79639533 1288.48829683 C1199.61838435 1277.14869631 1192.47732797 1265.78698209 1185.3701258 1254.40284761 C1180.60251028 1246.76953238 1175.80924584 1239.15290726 1170.99675849 1231.54782137 C1167.80626353 1226.50488989 1164.61932879 1221.45971465 1161.43311408 1216.41407808 C1160.8869947 1215.54931856 1160.34087531 1214.68455904 1159.77820686 1213.79359468 C1158.45090353 1211.69184945 1157.12363345 1209.59008324 1155.79639533 1207.48829683 C1155.80045953 1208.29994735 1155.80452373 1209.11159788 1155.80871108 1209.94784387 C1155.90516336 1229.91606115 1155.94423784 1249.88372026 1155.92336562 1269.85217126 C1155.91458275 1279.50980316 1155.92386622 1289.1667342 1155.97803596 1298.82423433 C1156.37803959 1373.51694165 1156.37803959 1373.51694165 1150.47608283 1397.74610933 C1150.19717893 1398.92860576 1150.19717893 1398.92860576 1149.9126406 1400.13499101 C1147.05594339 1411.63996977 1141.30985929 1420.31612845 1134.16195396 1429.65964922 C1132.20768671 1432.27664864 1130.45038674 1434.99965168 1128.67139533 1437.73829683 C1123.15005421 1445.09333106 1115.522699 1449.9517733 1107.92676643 1454.9863437 C1105.80442626 1456.41475264 1105.80442626 1456.41475264 1104.10743049 1458.03712495 C1097.2377223 1464.20008915 1088.03902027 1465.2945531 1079.29639533 1467.23829683 C1077.6175918 1467.62581281 1075.9392012 1468.01512231 1074.26123908 1468.40626558 C1070.54755443 1469.26968947 1066.83044713 1470.11599863 1063.10926154 1470.94648775 C1061.13323838 1471.40938841 1059.17534858 1471.94857557 1057.22300532 1472.50292238 C1052.66852707 1473.63677711 1048.33390431 1473.7903856 1043.65776923 1473.79609712 C1042.77064099 1473.80486163 1041.88351274 1473.81362614 1040.96950182 1473.82265624 C1038.01294607 1473.84924528 1035.05650934 1473.86174851 1032.09986213 1473.87403902 C1029.97142867 1473.8898588 1027.84300045 1473.90639778 1025.7145777 1473.92359956 C1018.7249748 1473.97594117 1011.73534895 1474.00669338 1004.74561408 1474.03517183 C1002.32212473 1474.04590437 999.89863548 1474.0566594 997.47514632 1474.06743654 C987.3636183 1474.11072252 977.25209638 1474.14816343 967.14049914 1474.17068132 C952.76069678 1474.202932 938.3819949 1474.26868735 924.00260708 1474.38348302 C913.83880195 1474.46177688 903.67528501 1474.50005321 893.51118693 1474.51052245 C887.47260748 1474.51772295 881.43520206 1474.54057893 875.39695647 1474.60672792 C851.6453147 1474.85386873 828.90435162 1474.31303168 805.69019416 1468.86036714 C804.79656334 1468.65295821 803.90293253 1468.44554928 802.98222199 1468.23185524 C792.79525612 1465.79933962 784.25636941 1462.9098869 775.79639533 1456.48829683 C774.33055889 1455.44359176 772.86446206 1454.3992518 771.39795783 1453.35548433 C770.06932655 1452.3622357 768.74373328 1451.36490867 767.42139533 1450.36329683 C766.74979377 1449.86442964 766.07819221 1449.36556245 765.38623908 1448.85157808 C758.42074032 1443.61034817 753.33229845 1437.75059808 748.29639533 1430.67579683 C747.74080939 1429.90687105 747.18522346 1429.13794527 746.61280158 1428.3457187 C744.98292011 1426.07347218 743.36534277 1423.8032232 741.79639533 1421.48829683 C741.21953241 1420.65099376 741.21953241 1420.65099376 740.63101569 1419.79677548 C737.45099573 1414.98644866 735.5654928 1410.5071064 734.16263679 1404.93267854 C733.95056295 1404.11692798 733.73848912 1403.30117742 733.51998881 1402.46070715 C732.83932001 1399.77604336 732.19289854 1397.08540505 731.55860236 1394.38941988 C731.33627504 1393.44857022 731.11394771 1392.50772057 730.8848832 1391.53836032 C725.93310981 1370.06417474 725.38850012 1349.10084993 725.58052686 1327.15604266 C725.61579548 1321.8617715 725.59264893 1316.5676966 725.57669929 1311.27337679 C725.55509851 1301.32614448 725.58315941 1291.37975287 725.63082233 1281.43263724 C725.68269337 1270.07509497 725.67652372 1258.71779038 725.66640165 1247.36016079 C725.64689695 1224.06926506 725.69728057 1200.77896968 725.79639533 1177.48829683 C723.24105145 1182.99749873 720.68625069 1188.50695208 718.13190559 1194.01661714 C717.26689382 1195.88224252 716.40174577 1197.74780473 715.5364466 1199.61329683 C704.04862401 1224.38042183 692.72768857 1249.22277643 681.43775275 1274.08058199 C676.92523717 1284.01446223 672.3966271 1293.94091134 667.85889533 1303.86329683 C667.52745521 1304.58805208 667.19601508 1305.31280733 666.85453132 1306.05952486 C664.1656682 1311.93882606 661.47586262 1317.81769597 658.78601936 1323.69654878 C651.41153217 1339.81437056 644.03894573 1355.93308021 636.69510749 1372.06489595 C636.0700774 1373.43751339 635.44467067 1374.80995941 634.81882575 1376.18220552 C633.94427939 1378.10010569 633.07124536 1380.01868656 632.19873908 1381.93751558 C631.91862983 1382.5519301 631.63852058 1383.16634462 631.34992316 1383.79937776 C629.84916737 1387.10687263 628.38908668 1390.4273704 626.97339728 1393.77223238 C626.66918357 1394.48575365 626.36496986 1395.19927492 626.05153754 1395.93441804 C625.47525778 1397.29093574 624.9055607 1398.65027881 624.34410957 1400.01300081 C621.89875199 1405.75612059 618.53278754 1410.33752134 614.50733283 1415.07423433 C612.51391133 1417.50358146 610.7726747 1420.0013636 609.08545783 1422.65235933 C602.46039251 1432.96389726 595.45443637 1439.56581425 585.03467658 1445.99586519 C582.71850426 1447.48405972 582.71850426 1447.48405972 580.44873908 1449.43580659 C572.27359922 1456.10848411 563.99107245 1458.06297595 553.92139533 1460.30079683 C552.34662843 1460.67021266 550.77240364 1461.04194735 549.19873908 1461.4160312 C546.13828163 1462.1400926 543.07401701 1462.84174362 540.00440314 1463.52589449 C537.42482954 1464.10419977 534.88645114 1464.73174344 532.33057502 1465.41554292 C516.31266392 1469.63611185 502.30212627 1467.05113361 486.54029182 1463.17311128 C483.47748631 1462.42422977 480.40693646 1461.71752118 477.33350471 1461.01368745 C467.05638119 1458.58529389 458.19629927 1456.19145972 449.79639533 1449.48829683 C448.33108666 1448.4311459 446.86497133 1447.37511194 445.39795783 1446.32032808 C444.06926753 1445.31800539 442.74367316 1444.31156388 441.42139533 1443.30079683 C440.74979377 1442.79355074 440.07819221 1442.28630464 439.38623908 1441.76368745 C438.09143396 1440.78304429 436.8003667 1439.79743978 435.51368049 1438.80616792 C434.05974951 1437.69039889 432.58633037 1436.60009507 431.10889533 1435.51564058 C428.30912474 1433.06111197 426.26015271 1430.28962478 424.17139533 1427.23829683 C421.54734023 1423.43349413 418.91755575 1419.63856613 416.18824103 1415.9082187 C408.94791199 1405.89230774 403.64024251 1395.49735976 398.60889533 1384.23829683 C397.78654132 1382.4291509 396.96294874 1380.62056751 396.13819221 1378.81251558 C393.66761344 1373.38145996 391.22688 1367.93739609 388.79639533 1362.48829683 C388.43978828 1361.68899751 388.08318122 1360.8896982 387.71576789 1360.06617769 C384.75007559 1353.41326196 381.79599221 1346.75524081 378.85620978 1340.09083589 C373.805919 1328.65896497 368.57607606 1317.31580422 363.29639533 1305.98829683 C357.00069873 1292.48093654 350.83825803 1278.9258322 344.82715705 1265.28956636 C339.45902453 1253.12161958 333.91480848 1241.04255157 328.29639533 1228.98829683 C322.00069873 1215.48093654 315.83825803 1201.9258322 309.82715705 1188.28956636 C304.45902453 1176.12161958 298.91480848 1164.04255157 293.29639533 1151.98829683 C287.00069873 1138.48093654 280.83825803 1124.9258322 274.82715705 1111.28956636 C269.45902453 1099.12161958 263.91480848 1087.04255157 258.29639533 1074.98829683 C252.00069873 1061.48093654 245.83825803 1047.9258322 239.82715705 1034.28956636 C234.45902453 1022.12161958 228.91480848 1010.04255157 223.29639533 997.98829683 C217.00069873 984.48093654 210.83825803 970.9258322 204.82715705 957.28956636 C199.45902453 945.12161958 193.91480848 933.04255157 188.29639533 920.98829683 C182.00069873 907.48093654 175.83825803 893.9258322 169.82715705 880.28956636 C164.45902453 868.12161958 158.91480848 856.04255157 153.29639533 843.98829683 C147.00069873 830.48093654 140.83825803 816.9258322 134.82715705 803.28956636 C129.45902453 791.12161958 123.91480848 779.04255157 118.29639533 766.98829683 C112.00069873 753.48093654 105.83825803 739.9258322 99.82715705 726.28956636 C94.45902453 714.12161958 88.91480848 702.04255157 83.29639533 689.98829683 C77.00069873 676.48093654 70.83825803 662.9258322 64.82715705 649.28956636 C59.45902453 637.12161958 53.91480848 625.04255157 48.29639533 612.98829683 C42.00069873 599.48093654 35.83825803 585.9258322 29.82715705 572.28956636 C24.45902453 560.12161958 18.91480848 548.04255157 13.29639533 535.98829683 C7.00069873 522.48093654 0.83825803 508.9258322 -5.17284295 495.28956636 C-10.54097547 483.12161958 -16.08519152 471.04255157 -21.70360467 458.98829683 C-27.99930127 445.48093654 -34.16174197 431.9258322 -40.17284295 418.28956636 C-45.54097547 406.12161958 -51.08519152 394.04255157 -56.70360467 381.98829683 C-62.99930127 368.48093654 -69.16174197 354.9258322 -75.17284295 341.28956636 C-80.54097547 329.12161958 -86.08519152 317.04255157 -91.70360467 304.98829683 C-97.99930127 291.48093654 -104.16174197 277.9258322 -110.17284295 264.28956636 C-115.54097744 252.1216151 -121.08534956 240.04262928 -126.70360467 227.98829683 C-132.99022823 214.49867602 -139.17335324 200.96962199 -145.20360467 187.36329683 C-145.71008538 186.22066377 -145.71008538 186.22066377 -146.22679803 185.05494722 C-148.22780172 180.53653587 -150.22400072 176.01612801 -152.20360467 171.48829683 C-152.70521111 170.40177827 -153.20681756 169.31525972 -153.7236242 168.19581636 C-156.74326446 160.6312738 -158.38816562 152.60771948 -160.29442498 144.70362886 C-160.81452778 142.57107785 -161.34793921 140.44172594 -161.89501092 138.31593355 C-165.26723244 125.20377511 -167.12682731 115.64159343 -163.20360467 102.48829683 C-162.72044398 100.29254677 -162.28705506 98.09026251 -161.85634515 95.88366731 C-158.41087232 78.40011667 -155.0887254 62.67187561 -142.72557732 49.19630464 C-140.37450143 46.55784989 -138.42574458 43.68935298 -136.39110467 40.80079683 C-130.58732879 32.72337679 -122.68742642 27.22024118 -114.51610467 21.73829683 C-113.68788201 21.17497652 -112.85965936 20.6116562 -112.00633904 20.03126558 C-109.74787689 18.50151459 -107.48939913 16.97691121 -105.20360467 15.48829683 C-104.5073523 15.01856258 -103.81109994 14.54882833 -103.09374902 14.06485971 C-73.27481767 -2.20125528 -32.71322363 -0.17566327 0 0 Z M2341.79639533 499.48829683 C2340.86198615 499.87549898 2339.92757697 500.26270113 2338.96485236 500.66163667 C2313.04868231 511.42947772 2288.68796417 523.58243772 2267.79639533 542.48829683 C2267.23533088 542.9929648 2266.67426643 543.49763277 2266.09620002 544.0175937 C2256.52951111 552.64593646 2246.95336042 561.46600098 2238.64014533 571.32814058 C2237.28372743 572.91733358 2235.88045328 574.46682825 2234.45264533 575.99220308 C2213.19813291 599.46593665 2199.28606453 631.30055121 2187.79639533 660.48829683 C2187.37164924 661.55451265 2186.94690314 662.62072847 2186.50928596 663.71925386 C2179.94893137 680.43798697 2176.59337485 696.64923766 2174.79639533 714.48829683 C2174.68215217 715.53356538 2174.567909 716.57883394 2174.45020393 717.6557773 C2171.10097103 748.94009345 2172.31451475 780.28995388 2175.79639533 811.48829683 C2175.96833374 813.27474906 2176.14021796 815.06120651 2176.31202033 816.84767183 C2181.40161933 862.56274799 2211.02469717 914.84599209 2242.32471564 947.91505464 C2243.73092562 949.41830897 2245.10825318 950.9423097 2246.47608283 952.48048433 C2262.2656404 970.14417335 2279.58828544 984.76783553 2300.37598518 996.16066011 C2302.68854807 997.42914075 2304.98654176 998.72126555 2307.28467658 1000.01564058 C2320.59192836 1007.37944023 2334.59470447 1013.0856474 2348.79639533 1018.48829683 C2349.58167609 1018.79243501 2350.36695686 1019.0965732 2351.176034 1019.40992769 C2386.26697502 1032.16704141 2442.41009794 1028.17167634 2475.79639533 1013.48829683 C2476.78655646 1013.05920015 2477.7767176 1012.63010347 2478.79688361 1012.18800386 C2519.45160546 994.44041994 2554.44474954 969.96532693 2581.79639533 934.48829683 C2582.45381721 933.70970308 2583.11123908 932.93110933 2583.78858283 932.12892183 C2589.69455596 925.09690713 2594.28352818 917.44719626 2598.79639533 909.48829683 C2599.48523811 908.28100923 2599.48523811 908.28100923 2600.18799689 907.04933199 C2616.88892728 877.61882958 2632.80078567 845.38609143 2636.67676643 811.438248 C2636.9191755 809.32019265 2637.17507072 807.20410757 2637.43311408 805.0879062 C2639.26386894 789.77993716 2640.00626844 774.52422637 2639.98389533 759.11329683 C2639.98329108 758.33349458 2639.98268684 757.55369234 2639.98206428 756.75025972 C2639.95253374 742.58568625 2639.32847798 728.57740664 2637.79639533 714.48829683 C2637.68344123 713.36552339 2637.57048713 712.24274995 2637.45411018 711.08595308 C2630.5286353 644.55689321 2589.722871 579.46125949 2538.73389533 537.23829683 C2537.09755009 535.97590165 2535.45235286 534.72485335 2533.79639533 533.48829683 C2533.02811408 532.86825777 2532.25983283 532.2482187 2531.46827033 531.60939058 C2505.24783549 511.20197667 2467.94586605 494.17910836 2434.79639533 491.48829683 C2433.72735969 491.39838472 2432.65832404 491.30847261 2431.55689338 491.21583589 C2402.64026732 488.95291814 2368.88677592 487.85249892 2341.79639533 499.48829683 Z " fill="#FEFEFE" transform="translate(314.20360466837883,311.511703170836)"/>
<path d="M0 0 C2.6129443 1.36056551 5.24293355 2.685629 7.87304688 4.01269531 C42.81095035 21.75140625 75.29048442 43.72883682 105.45068359 68.71484375 C106.981633 69.97490946 108.52972835 71.2140775 110.08007812 72.45019531 C116.2248788 77.35517612 121.98993177 82.58999756 127.69360352 87.99487305 C130.72977982 90.87049223 133.79267813 93.68408866 136.96679688 96.40722656 C142.12359306 100.8884681 146.91398531 105.72831054 151.73242188 110.56738281 C153.09270508 111.92186523 153.09270508 111.92186523 154.48046875 113.30371094 C159.0312499 117.8610922 163.44954604 122.4698574 167.64331055 127.3581543 C169.87704682 129.9505458 172.21252064 132.43837849 174.54492188 134.94238281 C179.65992393 140.48648109 184.45716909 146.23894183 189.16992188 152.12988281 C190.08068207 153.24894095 190.99217664 154.36740169 191.90429688 155.48535156 C219.45720786 189.38380949 242.95522372 226.44412398 263.16992188 265.12988281 C263.92136475 266.56485107 263.92136475 266.56485107 264.68798828 268.02880859 C288.77181796 314.32458656 306.61456877 363.92018655 318.37255859 414.72216797 C319.19137154 418.22155286 320.04075326 421.7126184 320.89257812 425.20410156 C325.22550947 443.28066142 328.28440994 461.41331693 330.90820312 479.80957031 C331.00688187 480.4983577 331.10556061 481.18714508 331.20722961 481.89680481 C333.0835176 495.3579981 334.52849323 508.79707052 335.27929688 522.36816406 C335.32116875 523.10636194 335.36304062 523.84455982 335.40618134 524.60512733 C336.31509717 540.94852519 336.47894995 557.27563755 336.43066406 573.64086914 C336.41916027 577.56756627 336.42612975 581.49399538 336.43755054 585.42068386 C336.47908471 602.29216876 336.16600704 618.99869623 334.41046143 635.7984314 C334.08654442 638.93802632 333.82774886 642.08235612 333.56445312 645.22753906 C330.78747659 674.7897605 324.79689705 703.95706592 317.95019531 732.81787109 C317.23493036 735.85394252 316.54456652 738.89419949 315.86523438 741.93847656 C313.01268542 754.58750683 309.28706191 766.83938459 305.16992188 779.12988281 C304.8130127 780.21237305 304.45610352 781.29486328 304.08837891 782.41015625 C294.61191349 811.09677669 283.26776342 838.90262748 270.16992188 866.12988281 C269.71407715 867.08008301 269.25823242 868.0302832 268.78857422 869.00927734 C254.38650979 898.85508125 237.15374638 926.99777331 218.16992188 954.12988281 C217.60241211 954.94118652 217.03490234 955.75249023 216.45019531 956.58837891 C209.23433465 966.85286655 201.63547854 976.71869127 193.62304688 986.37255859 C191.53376266 988.89921648 189.48020919 991.45456188 187.41992188 994.00488281 C183.82708953 998.39392891 180.08685862 1002.62469068 176.26757812 1006.81738281 C174.47484742 1008.79372654 172.7219696 1010.79445011 170.98242188 1012.81738281 C158.90905815 1026.63930266 146.21734371 1040.55170204 132.17773438 1052.40332031 C130.04024765 1054.24139255 127.97316864 1056.14785765 125.90771484 1058.06616211 C119.85803237 1063.68045799 113.61672962 1068.97243662 107.16992188 1074.12988281 C106.05086374 1075.040643 104.932403 1075.95213758 103.81445312 1076.86425781 C76.51788261 1099.04458181 47.15778333 1118.49748089 16.16992188 1135.12988281 C15.31769043 1135.59217285 14.46545898 1136.05446289 13.58740234 1136.53076172 C-10.37952821 1149.49931764 -35.22637931 1160.15407153 -60.8397522 1169.40786743 C-62.24128675 1169.91629145 -63.641191 1170.42922089 -65.03988647 1170.94540405 C-77.1955739 1175.42384848 -89.3995972 1179.06996913 -101.98413086 1182.13793945 C-104.76588371 1182.8169692 -107.54317614 1183.51231692 -110.3203125 1184.20996094 C-122.03509038 1187.123572 -133.79062188 1189.57799223 -145.66714478 1191.73373413 C-148.36944946 1192.22867053 -151.06432058 1192.75915928 -153.75976562 1193.29003906 C-181.78335637 1198.55315537 -210.26562408 1199.4058796 -238.70507812 1199.44238281 C-239.82295715 1199.44596802 -240.94083618 1199.44955322 -242.09259033 1199.45324707 C-258.09484665 1199.48091685 -273.90210294 1198.64661832 -289.83007812 1197.12988281 C-290.8973111 1197.02970856 -291.96454407 1196.9295343 -293.06411743 1196.82632446 C-391.84163954 1187.45562159 -486.18845758 1146.25374345 -586.15625 1068.56103516 C-587.91034661 1067.06125185 -589.67403985 1065.57335428 -591.43945312 1064.08691406 C-597.48609994 1058.97823332 -603.31130848 1053.80438789 -608.83789062 1048.12597656 C-610.68590675 1046.27433687 -612.5863417 1044.57166331 -614.58007812 1042.87988281 C-618.46057589 1039.54925315 -622.0850122 1035.9880341 -625.70507812 1032.37988281 C-626.27709961 1031.81237305 -626.84912109 1031.24486328 -627.43847656 1030.66015625 C-632.07308929 1026.00892208 -634.07832287 1023.59056593 -634.09228313 1016.9885956 C-634.09985242 1015.69224234 -634.10742171 1014.39588907 -634.11522037 1013.06025237 C-634.11355572 1011.6102294 -634.11170658 1010.16020663 -634.10969353 1008.7101841 C-634.1148103 1007.17232262 -634.12079767 1005.63446384 -634.12758094 1004.09660882 C-634.14376543 999.84057211 -634.14737834 995.58460091 -634.14902685 991.32853709 C-634.15295605 986.7095082 -634.16830322 982.09051522 -634.18217194 977.47150743 C-634.20784844 968.29660239 -634.22258198 959.12170867 -634.23396951 949.94677603 C-634.2480671 938.96244626 -634.27358386 927.97815034 -634.2990679 916.99384216 C-634.36282838 889.17807633 -634.40245001 861.36228804 -634.43763894 833.54647356 C-634.44717166 826.01432933 -634.45718948 818.48218579 -634.46724939 810.95004225 C-634.52844461 764.88655322 -634.58167491 718.82305708 -634.61463581 672.75953869 C-634.62240933 661.9330337 -634.63044954 651.10652889 -634.6386043 640.28002418 C-634.63962603 638.92098356 -634.6406435 637.56194294 -634.6416567 636.20290231 C-634.67419125 592.5637412 -634.74816728 548.92480181 -634.84996429 505.28575026 C-634.95613086 459.76102417 -635.02449126 414.23640555 -635.03924202 368.7115391 C-635.04129928 362.37923977 -635.04377193 356.04694066 -635.04648209 349.71464157 C-635.04699816 348.46835584 -635.04751424 347.2220701 -635.04804595 345.93801814 C-635.05744175 325.86830741 -635.10733574 305.79889182 -635.17198494 285.72929162 C-635.23600843 265.56001647 -635.25601743 245.39107415 -635.23112105 225.22170945 C-635.21763273 213.23523584 -635.23759785 201.24990425 -635.30537505 189.26360883 C-635.34734668 181.25731835 -635.34574182 173.25180228 -635.30870822 165.24548942 C-635.2888441 160.68272514 -635.28788912 156.12213792 -635.34003387 151.55957992 C-635.38715332 147.40362687 -635.37844865 143.25157509 -635.32624049 139.09571695 C-635.3171248 137.60632347 -635.32789176 136.11663256 -635.36160506 134.62759279 C-635.54588228 125.92276025 -634.06248284 120.25640358 -628.00306809 113.92343843 C-626.45604542 112.39599719 -624.88478663 110.91026224 -623.27453367 109.44975152 C-621.28859979 107.63510793 -619.43881523 105.69844407 -617.58007812 103.75488281 C-614.426396 100.64037686 -611.12381842 97.73327359 -607.76367188 94.84472656 C-605.87513215 93.16983982 -604.09852165 91.43040694 -602.33007812 89.62988281 C-598.66739485 85.91792577 -594.79555483 82.51375627 -590.83007812 79.12988281 C-589.87101562 78.30488281 -588.91195312 77.47988281 -587.92382812 76.62988281 C-551.84265055 45.72309441 -511.83244433 18.99337378 -469.07666016 -1.7734375 C-466.61125935 -2.97693461 -464.15671998 -4.20133861 -461.70117188 -5.42480469 C-410.52430695 -30.67610067 -354.11353953 -46.28030484 -297.51757812 -53.05761719 C-296.81286377 -53.14265503 -296.10814941 -53.22769287 -295.38208008 -53.31530762 C-205.63804454 -64.01809928 -114.22084529 -49.98763667 0 0 Z M-300.83007812 313.12988281 C-301.7644873 313.51708496 -302.69889648 313.90428711 -303.66162109 314.30322266 C-329.57779115 325.0710637 -353.93850929 337.22402371 -374.83007812 356.12988281 C-375.39114258 356.63455078 -375.95220703 357.13921875 -376.53027344 357.65917969 C-386.09696235 366.28752244 -395.67311303 375.10758696 -403.98632812 384.96972656 C-405.34274602 386.55891957 -406.74602017 388.10841423 -408.17382812 389.63378906 C-429.42834054 413.10752263 -443.34040893 444.94213719 -454.83007812 474.12988281 C-455.25482422 475.19609863 -455.67957031 476.26231445 -456.1171875 477.36083984 C-462.67754209 494.07957296 -466.03309861 510.29082365 -467.83007812 528.12988281 C-467.94432129 529.17515137 -468.05856445 530.22041992 -468.17626953 531.29736328 C-471.52550243 562.58167943 -470.31195871 593.93153986 -466.83007812 625.12988281 C-466.65813972 626.91633504 -466.4862555 628.70279249 -466.31445312 630.48925781 C-461.22485413 676.20433397 -431.60177629 728.48757807 -400.30175781 761.55664062 C-398.89554783 763.05989496 -397.51822027 764.58389568 -396.15039062 766.12207031 C-380.36083306 783.78575934 -363.03818801 798.40942151 -342.25048828 809.80224609 C-339.93792539 811.07072673 -337.63993169 812.36285153 -335.34179688 813.65722656 C-322.03454509 821.02102621 -308.03176898 826.72723339 -293.83007812 832.12988281 C-293.04479736 832.434021 -292.2595166 832.73815918 -291.45043945 833.05151367 C-256.35949843 845.80862739 -200.21637551 841.81326233 -166.83007812 827.12988281 C-165.83991699 826.70078613 -164.84975586 826.27168945 -163.82958984 825.82958984 C-123.17486799 808.08200592 -88.18172391 783.60691292 -60.83007812 748.12988281 C-60.17265625 747.35128906 -59.51523438 746.57269531 -58.83789062 745.77050781 C-52.93191749 738.73849311 -48.34294528 731.08878224 -43.83007812 723.12988281 C-43.14123535 721.92259521 -43.14123535 721.92259521 -42.43847656 720.69091797 C-25.73754618 691.26041557 -9.82568778 659.02767742 -5.94970703 625.07983398 C-5.70729795 622.96177863 -5.45140274 620.84569355 -5.19335938 618.72949219 C-3.36260452 603.42152314 -2.62020502 588.16581235 -2.64257812 572.75488281 C-2.64318237 571.97508057 -2.64378662 571.19527832 -2.64440918 570.3918457 C-2.67393972 556.22727223 -3.29799548 542.21899262 -4.83007812 528.12988281 C-4.94303223 527.00710938 -5.05598633 525.88433594 -5.17236328 524.72753906 C-12.09783816 458.1984792 -52.90360246 393.10284547 -103.89257812 350.87988281 C-105.52892337 349.61748763 -107.1741206 348.36643933 -108.83007812 347.12988281 C-109.59835937 346.50984375 -110.36664062 345.88980469 -111.15820312 345.25097656 C-137.37863797 324.84356265 -174.68060741 307.82069434 -207.83007812 305.12988281 C-208.89911377 305.0399707 -209.96814941 304.95005859 -211.06958008 304.85742188 C-239.98620614 302.59450412 -273.73969754 301.4940849 -300.83007812 313.12988281 Z " fill="#FF9900" transform="translate(2956.830078125,497.8701171875)"/>
<path d="M0 0 C6.21886042 0.78136042 6.21886042 0.78136042 8.8125 3.375 C9.00964206 6.12553612 9.07949042 8.77535091 9.06319833 11.52712774 C9.06740528 12.81493264 9.06740528 12.81493264 9.07169722 14.1287538 C9.07872869 17.04314818 9.07134726 19.9573353 9.06418228 22.87172699 C9.06626608 24.97624644 9.06922672 27.08076517 9.07299101 29.18528229 C9.08084003 35.01926768 9.07608755 40.85318763 9.06943511 46.68717206 C9.06439278 53.01479797 9.07086911 59.34241331 9.07592177 65.67003775 C9.08317064 76.77682396 9.08297768 87.88359036 9.07782745 98.99037743 C9.07233262 110.91279132 9.07115807 122.83519384 9.07530212 134.75760841 C9.07556047 135.50952189 9.07581881 136.26143537 9.07608499 137.03613411 C9.07715148 140.09835868 9.07824889 143.16058323 9.07938554 146.22280778 C9.08997533 174.77250818 9.09067672 203.32220095 9.08509064 231.87190247 C9.08492505 232.71861174 9.08475946 233.56532102 9.08458885 234.43768816 C9.08442299 235.28574306 9.08425713 236.13379797 9.08408624 237.00755151 C9.07904565 262.81413255 9.0777344 288.62071044 9.08013153 314.42729187 C9.08028649 316.15349172 9.0804408 317.87969157 9.08059447 319.60589142 C9.08121537 326.54227234 9.0818527 333.47865326 9.082514 340.41503418 C9.08434827 359.80669583 9.08548929 379.1983575 9.08608627 398.59001923 C9.08611356 399.47316755 9.08614086 400.35631587 9.08616897 401.26622627 C9.08698788 429.4192678 9.08473195 457.57230824 9.08038712 485.72534943 C9.08017637 487.09560564 9.08017637 487.09560564 9.07996136 488.49354379 C9.0776713 503.3295068 9.07523245 518.16546978 9.07278102 533.00143276 C9.06306788 591.84747515 9.0635187 650.69350844 9.07324219 709.53955078 C9.07568445 724.36791737 9.0781065 739.19628396 9.08038712 754.02465057 C9.08059846 755.39409045 9.08059846 755.39409045 9.08081407 756.79119577 C9.08512458 784.91412425 9.08695534 813.03705197 9.08608627 841.15998077 C9.08604552 842.4837381 9.08604552 842.4837381 9.08600394 843.834238 C9.08537907 863.20413155 9.08411194 882.57402502 9.08226527 901.94391849 C9.08160695 908.87420535 9.08098079 915.80449222 9.08036385 922.73477908 C9.08020907 924.45895187 9.08005161 926.18312465 9.07989145 927.90729744 C9.07750143 953.70897024 9.07954266 979.51063948 9.08458885 1005.31231184 C9.08483723 1006.58237576 9.08483723 1006.58237576 9.08509064 1007.87809753 C9.085256 1008.72325402 9.08542137 1009.56841051 9.08559174 1010.4391778 C9.09110036 1038.90424743 9.08909493 1067.3693079 9.07852915 1095.83437622 C9.07742437 1098.887048 9.07635097 1101.93971979 9.07530212 1104.99239159 C9.07504171 1105.74160056 9.0747813 1106.49080954 9.07451299 1107.26272181 C9.07055843 1119.15633005 9.07332506 1131.04992695 9.07884014 1142.94353417 C9.08411306 1154.62052794 9.08213614 1166.29749858 9.07281196 1177.97449036 C9.06802278 1184.22843912 9.06649261 1190.48234457 9.07362393 1196.73629206 C9.08003187 1202.41333181 9.07741695 1208.09028938 9.0672626 1213.76732301 C9.06523 1215.82013575 9.06662769 1217.87295512 9.07167448 1219.92576266 C9.07799746 1222.69156823 9.07223351 1225.4570808 9.06319833 1228.22287226 C9.06797981 1229.03047753 9.0727613 1229.8380828 9.07768767 1230.67016095 C9.04081139 1236.14668861 9.04081139 1236.14668861 6.8125 1238.375 C3.89394358 1238.57077528 1.0703702 1238.63975548 -1.84925842 1238.62223816 C-2.75681033 1238.62465257 -3.66436224 1238.62706699 -4.59941572 1238.62955457 C-7.65887831 1238.63521756 -10.71813449 1238.6265089 -13.77758789 1238.61791992 C-15.96342526 1238.61899215 -18.14926235 1238.62092995 -20.33509827 1238.62367249 C-26.28529834 1238.62853313 -32.23542378 1238.62085019 -38.18561482 1238.61071944 C-44.39916863 1238.60195985 -50.61271996 1238.60369597 -56.82627869 1238.6040802 C-67.26155805 1238.60314267 -77.69681021 1238.59450015 -88.13208008 1238.58081055 C-98.87915574 1238.56671911 -109.62620599 1238.55963989 -120.37329102 1238.56030273 C-121.03531318 1238.56034269 -121.69733535 1238.56038265 -122.3794188 1238.56042381 C-123.37070123 1238.56048435 -123.37070123 1238.56048435 -124.38200957 1238.5605461 C-135.98337565 1238.56115541 -147.58473132 1238.5560591 -159.18609428 1238.54775429 C-164.13386555 1238.54421392 -169.08163313 1238.54238997 -174.02940559 1238.54186058 C-179.84956854 1238.54085963 -185.66970456 1238.53478342 -191.48985863 1238.52469444 C-193.63252726 1238.52176153 -195.775199 1238.52054566 -197.91786957 1238.52112198 C-200.82951722 1238.52160897 -203.7410882 1238.51599371 -206.65272522 1238.50871277 C-207.51223866 1238.51026137 -208.3717521 1238.51180997 -209.2573114 1238.5134055 C-215.07332147 1238.48917853 -215.07332147 1238.48917853 -216.1875 1237.375 C-216.2915692 1234.6448828 -216.32955602 1231.93981746 -216.3261652 1229.20900631 C-216.32900742 1228.33834002 -216.33184964 1227.46767373 -216.33477798 1226.57062361 C-216.34318657 1223.61485777 -216.34439798 1220.6591308 -216.34571838 1217.70335388 C-216.35027955 1215.57821768 -216.3552789 1213.45308238 -216.36068195 1211.32794815 C-216.37432324 1205.45839897 -216.38169865 1199.5888556 -216.38810861 1193.71929467 C-216.39608638 1187.4009095 -216.40979311 1181.08253656 -216.42282104 1174.76416016 C-216.44462118 1163.80723354 -216.46278733 1152.85030663 -216.47842598 1141.89336967 C-216.49484867 1130.3977048 -216.51332367 1118.90204627 -216.53455925 1107.40638924 C-216.53587686 1106.69248938 -216.53719446 1105.97858953 -216.538552 1105.24305635 C-216.54525378 1101.61774213 -216.55199242 1097.99242797 -216.55874526 1094.36711384 C-216.60654956 1068.66735612 -216.6497227 1042.9675925 -216.69018555 1017.26782227 C-216.72951314 992.29581268 -216.77093024 967.323808 -216.81518555 942.35180664 C-216.81654808 941.58249937 -216.81791061 940.8131921 -216.81931442 940.02057249 C-216.83299942 932.29510108 -216.84672699 924.56962975 -216.86048577 916.84415847 C-216.88851475 901.10550244 -216.91625948 885.36684592 -216.9438324 869.62818909 C-216.9451006 868.90449958 -216.9463688 868.18081008 -216.94767542 867.43519059 C-217.03237768 819.08180166 -217.11043205 770.72840163 -217.1875 722.375 C-219.59743865 726.2306963 -222.00734068 730.08641549 -224.41723633 733.94213867 C-225.09643379 735.0287957 -225.77563126 736.11545273 -226.47541046 737.23503876 C-229.8220447 742.58953913 -233.16823952 747.94431021 -236.51171875 753.30078125 C-242.52816298 762.93804346 -248.56139944 772.56398364 -254.63623047 782.16455078 C-261.19684125 792.54073779 -267.68729935 802.96091151 -274.1875 813.375 C-281.64421842 825.32154283 -289.10612847 837.26409636 -296.63623047 849.16455078 C-303.19684125 859.54073779 -309.68729935 869.96091151 -316.1875 880.375 C-323.64421842 892.32154283 -331.10612847 904.26409636 -338.63623047 916.16455078 C-345.19684125 926.54073779 -351.68729935 936.96091151 -358.1875 947.375 C-365.64421842 959.32154283 -373.10612847 971.26409636 -380.63623047 983.16455078 C-387.19684125 993.54073779 -393.68729935 1003.96091151 -400.1875 1014.375 C-407.64421842 1026.32154283 -415.10612847 1038.26409636 -422.63623047 1050.16455078 C-428.5499154 1059.51756726 -434.40454024 1068.9074913 -440.26416016 1078.29443359 C-444.02540905 1084.31873399 -447.79065182 1090.34053882 -451.55517578 1096.36279297 C-454.71912365 1101.42461403 -457.88204438 1106.48707148 -461.04296875 1111.55078125 C-467.21607747 1121.43779278 -473.40375756 1131.31484891 -479.63623047 1141.16455078 C-486.19684125 1151.54073779 -492.68729935 1161.96091151 -499.1875 1172.375 C-506.43837593 1183.99175886 -513.68931721 1195.60824604 -521 1207.1875 C-521.49781982 1207.97616455 -521.99563965 1208.7648291 -522.50854492 1209.57739258 C-524.37527478 1212.52989697 -526.24968445 1215.46827667 -528.1875 1218.375 C-530.60327148 1218.84887695 -530.60327148 1218.84887695 -533.1875 1218.375 C-534.94165039 1216.47338867 -534.94165039 1216.47338867 -536.53515625 1213.79296875 C-537.13392578 1212.808125 -537.73269531 1211.82328125 -538.34960938 1210.80859375 C-538.97673828 1209.73738281 -539.60386719 1208.66617187 -540.25 1207.5625 C-541.59451511 1205.3369151 -542.93957305 1203.11165805 -544.28515625 1200.88671875 C-544.94789551 1199.77731934 -545.61063477 1198.66791992 -546.29345703 1197.52490234 C-548.85587041 1193.26346159 -551.51355362 1189.06697517 -554.1875 1184.875 C-559.36748503 1176.69787933 -564.49550893 1168.48863417 -569.62109375 1160.27734375 C-573.45899019 1154.13200037 -577.31262731 1147.99708883 -581.1875 1141.875 C-585.71336201 1134.72438334 -590.20637978 1127.55373534 -594.6875 1120.375 C-601.15250745 1110.01935712 -607.65801621 1099.69007724 -614.1875 1089.375 C-621.36779382 1078.03179314 -628.51160438 1066.66676255 -635.62036133 1055.27856445 C-639.45846591 1049.13279152 -643.31237354 1042.99748977 -647.1875 1036.875 C-652.36434221 1028.69586989 -657.49549264 1020.48866027 -662.62109375 1012.27734375 C-666.45899019 1006.13200037 -670.31262731 999.99708883 -674.1875 993.875 C-679.36434221 985.69586989 -684.49549264 977.48866027 -689.62109375 969.27734375 C-693.45899019 963.13200037 -697.31262731 956.99708883 -701.1875 950.875 C-706.36434221 942.69586989 -711.49549264 934.48866027 -716.62109375 926.27734375 C-720.45899019 920.13200037 -724.31262731 913.99708883 -728.1875 907.875 C-733.36434221 899.69586989 -738.49549264 891.48866027 -743.62109375 883.27734375 C-747.45899019 877.13200037 -751.31262731 870.99708883 -755.1875 864.875 C-759.71336201 857.72438334 -764.20637978 850.55373534 -768.6875 843.375 C-775.15250745 833.01935712 -781.65801621 822.69007724 -788.1875 812.375 C-795.36779382 801.03179314 -802.51160438 789.66676255 -809.62036133 778.27856445 C-813.92704665 771.38247564 -818.25810294 764.50237919 -822.60693359 757.6328125 C-827.5332509 749.84374824 -832.41273607 742.02551073 -837.2890625 734.20507812 C-837.8975 733.22990234 -838.5059375 732.25472656 -839.1328125 731.25 C-839.67437988 730.38117187 -840.21594727 729.51234375 -840.77392578 728.6171875 C-841.88598374 726.85325998 -843.03083195 725.11000208 -844.1875 723.375 C-844.18885653 724.45973299 -844.19021306 725.54446599 -844.19161069 726.66206968 C-844.25149853 774.44599633 -844.31384714 822.22991892 -844.38882446 870.01382446 C-844.38995809 870.73674371 -844.39109171 871.45966295 -844.39225969 872.20448884 C-844.41690857 887.91378462 -844.44200132 903.62307966 -844.46755161 919.332374 C-844.48007795 927.03571014 -844.49250616 934.73904643 -844.50488281 942.44238281 C-844.50611614 943.2089756 -844.50734946 943.97556838 -844.50862016 944.76539125 C-844.54858185 969.63283416 -844.58205803 994.50028069 -844.61218691 1019.36773729 C-844.64317085 1044.91276792 -844.68066591 1070.45778085 -844.72640612 1096.00278952 C-844.73285694 1099.60715157 -844.73923299 1103.21151375 -844.74556351 1106.81587601 C-844.74681181 1107.52529736 -844.74806012 1108.23471871 -844.74934625 1108.96563768 C-844.76928404 1120.40590614 -844.78231571 1131.84617264 -844.79279328 1143.28645325 C-844.80346172 1154.77535458 -844.82150003 1166.26422018 -844.84666704 1177.75310014 C-844.86009566 1183.98307556 -844.87020672 1190.21301202 -844.87171364 1196.4430027 C-844.87316148 1202.13751633 -844.88367021 1207.83193597 -844.90163441 1213.52642079 C-844.90651627 1215.59507804 -844.9079652 1217.66374659 -844.90577881 1219.73240845 C-844.90330799 1222.52745013 -844.91292601 1225.3221865 -844.92578697 1228.11719322 C-844.92213729 1228.93496841 -844.91848761 1229.75274359 -844.91472733 1230.59529984 C-844.9592084 1236.1467084 -844.9592084 1236.1467084 -847.1875 1238.375 C-850.10605642 1238.57077528 -852.9296298 1238.63975548 -855.84925842 1238.62223816 C-856.75681033 1238.62465257 -857.66436224 1238.62706699 -858.59941572 1238.62955457 C-861.65887831 1238.63521756 -864.71813449 1238.6265089 -867.77758789 1238.61791992 C-869.96342526 1238.61899215 -872.14926235 1238.62092995 -874.33509827 1238.62367249 C-880.28529834 1238.62853313 -886.23542378 1238.62085019 -892.18561482 1238.61071944 C-898.39916863 1238.60195985 -904.61271996 1238.60369597 -910.82627869 1238.6040802 C-921.26155805 1238.60314267 -931.69681021 1238.59450015 -942.13208008 1238.58081055 C-952.87915574 1238.56671911 -963.62620599 1238.55963989 -974.37329102 1238.56030273 C-975.03531318 1238.56034269 -975.69733535 1238.56038265 -976.3794188 1238.56042381 C-977.37070123 1238.56048435 -977.37070123 1238.56048435 -978.38200957 1238.5605461 C-989.98337565 1238.56115541 -1001.58473132 1238.5560591 -1013.18609428 1238.54775429 C-1018.13386555 1238.54421392 -1023.08163313 1238.54238997 -1028.02940559 1238.54186058 C-1033.84956854 1238.54085963 -1039.66970456 1238.53478342 -1045.48985863 1238.52469444 C-1047.63252726 1238.52176153 -1049.775199 1238.52054566 -1051.91786957 1238.52112198 C-1054.82951722 1238.52160897 -1057.7410882 1238.51599371 -1060.65272522 1238.50871277 C-1061.51223866 1238.51026137 -1062.3717521 1238.51180997 -1063.2573114 1238.5134055 C-1069.07332147 1238.48917853 -1069.07332147 1238.48917853 -1070.1875 1237.375 C-1070.3019361 1235.17045981 -1070.34444335 1232.96219111 -1070.36082745 1230.75474358 C-1070.36737403 1230.05109193 -1070.37392061 1229.34744028 -1070.38066557 1228.62246585 C-1070.40156719 1226.23447876 -1070.41522006 1223.84650435 -1070.42887878 1221.45846558 C-1070.44218935 1219.74060399 -1070.45589121 1218.0227454 -1070.46995336 1216.3048898 C-1070.50732576 1211.55960362 -1070.53802869 1206.81429402 -1070.56742847 1202.06895256 C-1070.59334302 1198.0033958 -1070.62288167 1193.93786812 -1070.65223893 1189.872335 C-1070.92965918 1151.20090857 -1071.08040295 1112.5286808 -1071.20225048 1073.85648918 C-1071.21843657 1068.80992406 -1071.23493547 1063.76336007 -1071.25170898 1058.71679688 C-1071.25794311 1056.83544521 -1071.25794311 1056.83544521 -1071.26430319 1054.91608645 C-1071.33326224 1034.68558843 -1071.46878996 1014.45608273 -1071.63038584 994.22613595 C-1071.79519465 973.41903792 -1071.89030327 952.61245216 -1071.92176324 931.804721 C-1071.94320121 918.99703625 -1072.01654499 906.19193299 -1072.1593499 893.38501723 C-1072.25236329 884.5671103 -1072.27655726 875.75056688 -1072.25003799 866.93221883 C-1072.23670749 861.86648353 -1072.25031816 856.80529184 -1072.3466568 851.74035454 C-1072.84581407 824.07970312 -1067.60374001 804.03531363 -1054.45671618 779.68513131 C-1051.12630176 773.46140414 -1048.28126942 767.0167817 -1045.42505112 760.5655124 C-1043.93654267 757.21676117 -1042.41586063 753.88259772 -1040.8984375 750.546875 C-1040.55842712 749.79724487 -1040.21841675 749.04761475 -1039.86810303 748.27526855 C-1036.32462099 740.46754174 -1032.7553683 732.67160434 -1029.1875 724.875 C-1024.00505916 713.54879605 -1018.83746588 702.2160067 -1013.6875 690.875 C-1008.55648195 679.57653773 -1003.41083015 668.2848773 -998.25 657 C-997.91855988 656.27524475 -997.58711975 655.5504895 -997.24563599 654.80377197 C-994.55677287 648.92447077 -991.86696729 643.04560086 -989.17712402 637.16674805 C-986.82597591 632.02803327 -984.47520025 626.88914835 -982.125 621.75 C-981.79347931 621.02508362 -981.46195862 620.30016724 -981.12039185 619.55328369 C-976.29499298 609.00039404 -971.48568823 598.44028689 -966.6875 587.875 C-959.5529314 572.16516112 -952.38195105 556.47210567 -945.20361328 540.78222656 C-943.19614757 536.39424242 -941.18970706 532.00579008 -939.18359375 527.6171875 C-938.68889587 526.53497925 -938.68889587 526.53497925 -938.1842041 525.4309082 C-937.18528541 523.24561339 -936.18638837 521.06030868 -935.1875 518.875 C-931.51321894 510.83662601 -927.83891659 502.7982627 -924.16183472 494.76116943 C-917.32004338 479.80681177 -910.48760245 464.84836699 -903.6875 449.875 C-898.55636644 438.57658995 -893.41083032 427.28487767 -888.25 416 C-887.91855988 415.27524475 -887.58711975 414.5504895 -887.24563599 413.80377197 C-884.55677287 407.92447077 -881.86696729 402.04560086 -879.17712402 396.16674805 C-877.15985867 391.75777389 -875.14288532 387.34866637 -873.12634277 382.93936157 C-872.46147849 381.48568522 -871.79652157 380.03205124 -871.13146973 378.57846069 C-867.41526749 370.45554103 -863.70926765 362.32815725 -860.0234375 354.19140625 C-859.68351273 353.44149414 -859.34358795 352.69158203 -858.99336243 351.91894531 C-857.37528006 348.34921095 -855.75893181 344.778716 -854.14624023 341.20654297 C-850.97007834 334.18715484 -847.70939328 327.22854997 -844.1875 320.375 C-841.91282909 322.51777001 -840.18096461 324.71442109 -838.47045898 327.32617188 C-837.94747726 328.12076813 -837.42449554 328.91536438 -836.88566589 329.73403931 C-836.32398209 330.59524384 -835.76229828 331.45644836 -835.18359375 332.34375 C-834.29798515 333.69199356 -834.29798515 333.69199356 -833.39448547 335.06747437 C-832.12752661 336.99706905 -830.86217455 338.92771952 -829.5982666 340.85931396 C-826.94530806 344.91375345 -824.28486296 348.9632577 -821.62460327 353.01290894 C-820.30084472 355.02806455 -818.97745923 357.04346526 -817.65444946 359.05911255 C-812.78268207 366.47909405 -807.87558748 373.87401093 -802.9375 381.25 C-793.33233851 395.61616631 -783.85189115 410.06390845 -774.36109924 424.50575256 C-768.13132287 433.98422871 -761.89223071 443.45656323 -755.65103149 452.92752075 C-754.40278973 454.82183528 -753.15471708 456.71626124 -751.90682983 458.61080933 C-743.60407596 471.21628407 -743.60407596 471.21628407 -735.24609375 483.78515625 C-728.0362184 494.57623516 -720.91858242 505.4284749 -713.78271484 516.26855469 C-707.53682296 525.7556189 -701.28928544 535.24093714 -694.97814941 544.68475342 C-689.63663217 552.68564474 -684.35880146 560.72868009 -679.07019043 568.7645874 C-670.39256992 581.94868535 -661.71156656 595.12983268 -652.9375 608.25 C-643.33312826 622.61670311 -633.85189739 637.06389895 -624.36109924 651.50575256 C-618.13132287 660.98422871 -611.89223071 670.45656323 -605.65103149 679.92752075 C-604.40278973 681.82183528 -603.15471708 683.71626124 -601.90682983 685.61080933 C-593.58848064 698.23974126 -593.58848064 698.23974126 -585.21484375 710.83203125 C-579.45584591 719.45164981 -573.76301917 728.11476515 -568.06414795 736.77420044 C-562.44416515 745.31146738 -556.81622481 753.84349512 -551.1875 762.375 C-550.66845093 763.16183167 -550.14940186 763.94866333 -549.61462402 764.75933838 C-546.98112149 768.75034902 -544.34408557 772.73896456 -541.69970703 776.72277832 C-540.59045152 778.39535369 -539.4846336 780.07020728 -538.37890625 781.74511719 C-537.72535156 782.72770508 -537.07179688 783.71029297 -536.3984375 784.72265625 C-535.56771729 785.97574585 -535.56771729 785.97574585 -534.72021484 787.25415039 C-533.3306563 789.17691164 -531.88068956 790.72613372 -530.1875 792.375 C-523.19614554 781.93653008 -516.2146854 771.49144104 -509.25 761.03515625 C-508.65218719 760.13940887 -508.05437439 759.2436615 -507.43844604 758.32077026 C-502.14376559 750.36477013 -497.02257396 742.30345133 -491.93359375 734.21484375 C-486.25859087 725.29053504 -480.32634706 716.53245242 -474.44763184 707.74176025 C-465.51500218 694.38399478 -456.64275524 680.98814978 -447.8125 667.5625 C-438.01667957 652.66889837 -428.15789488 637.8192592 -418.25 623 C-410.88979145 611.99045604 -403.57287483 600.96960489 -396.53369141 589.75097656 C-390.3581536 579.96283394 -383.88684652 570.37051084 -377.45367432 560.75082397 C-368.39369557 547.20279869 -359.39534952 533.61575947 -350.4375 520 C-341.76973974 506.82677687 -333.07418784 493.67345236 -324.3125 480.5625 C-318.54021495 471.92341508 -312.78560987 463.27540753 -307.125 454.5625 C-299.9599217 443.53396907 -292.73533353 432.54503493 -285.5 421.5625 C-284.57160309 420.15304611 -284.57160309 420.15304611 -283.62445068 418.71511841 C-273.62275941 403.53591547 -263.54510192 388.40854807 -253.44259644 373.29632568 C-246.68720563 363.18642625 -239.99662029 353.05120497 -233.53369141 342.75097656 C-227.3581536 332.96283394 -220.88684652 323.37051084 -214.45367432 313.75082397 C-205.39369557 300.20279869 -196.39534952 286.61575947 -187.4375 273 C-178.76973974 259.82677687 -170.07418784 246.67345236 -161.3125 233.5625 C-154.9612605 224.05692347 -148.65012286 214.52896979 -142.42260742 204.94165039 C-135.69859112 194.60025514 -128.91229682 184.29993391 -122.125 174 C-121.18259964 172.56979019 -121.18259964 172.56979019 -120.22116089 171.11068726 C-111.08738031 157.25292632 -101.9183922 143.4192472 -92.67944336 129.63134766 C-87.48025863 121.86460562 -82.36226193 114.04816494 -77.276474 106.20671082 C-70.98027815 96.50334364 -64.61783708 86.84394761 -58.25 77.1875 C-57.62697998 76.24221436 -57.00395996 75.29692871 -56.36206055 74.32299805 C-49.88548708 64.49729689 -43.40030044 54.67754499 -36.87109375 44.88671875 C-36.38629547 44.15914368 -35.90149719 43.4315686 -35.40200806 42.6819458 C-33.10105502 39.23156816 -30.79221723 35.78696822 -28.46679688 32.35302734 C-24.60242054 26.63056913 -20.86065138 20.92617474 -17.47265625 14.90234375 C-8.83782325 -0.24260691 -8.83782325 -0.24260691 0 0 Z " fill="#990000" transform="translate(2213.1875,444.625)"/>
<path d="M0 0 C85.47 0 170.94 0 259 0 C271.54841198 27.37835342 271.54841198 27.37835342 277.43481445 40.87109375 C279.34789154 45.25586818 281.26827059 49.63744713 283.1875 54.01953125 C283.58336304 54.92385895 283.97922607 55.82818665 284.38708496 56.75991821 C288.73329306 66.68423055 293.11628115 76.59221516 297.5 86.5 C303.68855963 100.49044782 309.8559516 114.48994858 316 128.5 C324.49987564 147.88039532 333.04916596 167.23874835 341.60888672 186.59277344 C345.17914287 194.66578136 348.74620356 202.74020122 352.31350708 210.81451416 C354.29220732 215.29306721 356.27111411 219.77152898 358.25 224.25 C359.04166766 226.04166623 359.83333432 227.8333329 360.625 229.625 C361.016875 230.511875 361.40875 231.39875 361.8125 232.3125 C365.37499999 240.37499998 365.37499999 240.37499998 366.56248474 243.06246948 C367.35419831 244.85423962 368.14591584 246.64600802 368.93763733 248.43777466 C370.91611882 252.91534384 372.89453164 257.39294333 374.87280273 261.87060547 C378.44340558 269.95220476 382.01450696 278.03358184 385.58816528 286.11383057 C394.12345428 305.41272763 402.64015924 324.71948257 411.11602783 344.04455566 C419.24474251 362.57637265 427.42379359 381.08580314 435.60888672 399.59277344 C439.97069817 409.45563393 444.32804684 419.32046722 448.68621826 429.18493652 C449.87281569 431.8706991 451.05944284 434.55644855 452.24609375 437.2421875 C452.63776733 438.12865967 453.02944092 439.01513184 453.4329834 439.9284668 C455.81708935 445.32401051 458.20223113 450.71909506 460.58816528 456.11383057 C469.12345428 475.41272763 477.64015924 494.71948257 486.11602783 514.04455566 C494.24474251 532.57637265 502.42379359 551.08580314 510.60888672 569.59277344 C514.17950757 577.666606 517.74693598 585.74184917 521.31460571 593.81698608 C523.28774994 598.28298822 525.26106077 602.74891673 527.234375 607.21484375 C527.62542923 608.09987076 528.01648346 608.98489777 528.41938782 609.89674377 C530.83435602 615.3621916 533.24953911 620.82754441 535.66487122 626.29283142 C545.78476122 649.19161627 555.89841385 672.09313416 566 695 C569.15437204 691.30019461 570.86623328 687.12998255 572.78125 682.71484375 C573.14691574 681.88332794 573.51258148 681.05181213 573.889328 680.19509888 C575.09763617 677.44462313 576.29873029 674.69105615 577.5 671.9375 C578.3494651 670.00097884 579.19949035 668.06470329 580.05004883 666.12866211 C581.82023442 662.09812867 583.58798936 658.06654237 585.35400391 654.03417969 C589.05101674 645.59724639 592.77505686 637.17228051 596.50027466 628.74777222 C597.69405039 626.0476843 598.8870297 623.3472457 600.07983398 620.64672852 C605.38074874 608.64772012 610.70633181 596.65984538 616.04147339 584.67602539 C621.31720955 572.82209287 626.54238356 560.94649707 631.75 549.0625 C638.10333077 534.56428793 644.50162292 520.08675773 650.9375 505.625 C657.49784217 490.88320461 664.04421984 476.13544753 670.5625 461.375 C671.14751785 460.05027679 671.14751785 460.05027679 671.74435425 458.6987915 C673.71023897 454.24691718 675.67575873 449.79488184 677.64111328 445.34277344 C681.59167202 436.39412058 685.54611787 427.44718479 689.5 418.5 C691.07946586 414.92579838 692.65889576 411.35158088 694.23828125 407.77734375 C694.62953186 406.89192398 695.02078247 406.00650421 695.42388916 405.09425354 C697.8298512 399.64913113 700.23497278 394.20363827 702.63948059 388.75787354 C704.65522012 384.19263112 706.67128358 379.62753181 708.6875 375.0625 C709.08387665 374.16501038 709.4802533 373.26752075 709.88864136 372.34283447 C715.58583024 359.44476313 721.30672936 346.55743428 727.04147339 333.67602539 C732.31720955 321.82209287 737.54238356 309.94649707 742.75 298.0625 C749.10333077 283.56428793 755.50162292 269.08675773 761.9375 254.625 C768.49784234 239.88320423 775.044104 225.1353966 781.5625 210.375 C781.95151489 209.49417755 782.34052979 208.6133551 782.74133301 207.70584106 C785.09804407 202.36940637 787.45410061 197.0326829 789.80993652 191.69586182 C793.43484489 183.48432332 797.06075271 175.27322647 800.6875 167.0625 C801.08396729 166.1648291 801.48043457 165.2671582 801.88891602 164.34228516 C807.58600814 151.44439448 813.30681247 138.5572476 819.04147339 125.67602539 C824.69487966 112.97351441 830.2886666 100.24536168 835.86819458 87.51025391 C842.45606946 72.47682195 849.11090346 57.47377622 855.78933716 42.4803772 C861.04865853 30.67228474 866.29076458 18.8589395 871.375 6.97412109 C873.89835896 1.10164104 873.89835896 1.10164104 875 0 C876.40221294 -0.09652896 877.80926752 -0.12371873 879.21479893 -0.12304783 C880.12943962 -0.12503888 881.04408031 -0.12702993 881.98643738 -0.12908131 C883.00295299 -0.12616847 884.0194686 -0.12325563 885.06678772 -0.12025452 C886.67290543 -0.12153615 886.67290543 -0.12153615 888.31146997 -0.12284368 C891.92909878 -0.12450166 895.54668205 -0.11897193 899.16430664 -0.11352539 C901.7457021 -0.11324356 904.32709763 -0.11340117 906.90849304 -0.1139679 C912.48135418 -0.11449331 918.05420364 -0.11134467 923.62706184 -0.10573006 C931.68456806 -0.09761745 939.74206862 -0.09500008 947.79957848 -0.09374207 C960.87102753 -0.09155117 973.94247035 -0.08489006 987.01391602 -0.07543945 C999.71476205 -0.06626631 1012.4156064 -0.059185 1025.11645508 -0.05493164 C1025.8987852 -0.05466892 1026.68111531 -0.05440619 1027.48715241 -0.05413551 C1031.41170843 -0.05283051 1035.33626446 -0.05156679 1039.26082051 -0.05032361 C1071.84055154 -0.03994982 1104.42027494 -0.02233048 1137 0 C1138.05599976 1.82373047 1138.05599976 1.82373047 1139 4 C1138.10400391 6.8203125 1138.10400391 6.8203125 1136.4765625 10.125 C1136.18453949 10.73118164 1135.89251648 11.33736328 1135.59164429 11.96191406 C1134.95325661 13.28355213 1134.30780388 14.60179504 1133.65625 15.91699219 C1131.87630997 19.51226878 1130.14912943 23.13291469 1128.4140625 26.75 C1128.04927795 27.50684082 1127.68449341 28.26368164 1127.30865479 29.04345703 C1123.70833307 36.53923794 1120.33567814 44.12915126 1116.99185181 51.74203491 C1111.62352699 63.96310456 1106.13636812 76.11695095 1100.4375 88.1875 C1095.39900112 98.86050949 1090.43315557 109.56175875 1085.5625 120.3125 C1085.25464569 120.99194672 1084.94679138 121.67139343 1084.62960815 122.37142944 C1083.37687326 125.13670785 1082.12428453 127.90205232 1080.87211609 130.66758728 C1077.2690568 138.62131621 1073.6340455 146.56039462 1070 154.5 C1064.81732284 165.82609535 1059.64996553 177.15899408 1054.5 188.5 C1049.36898195 199.79846227 1044.22333015 211.0901227 1039.0625 222.375 C1038.73105988 223.09975525 1038.39961975 223.8245105 1038.05813599 224.57122803 C1035.36927287 230.45052923 1032.67946729 236.32939914 1029.98962402 242.20825195 C1027.63847591 247.34696673 1025.28770025 252.48585165 1022.9375 257.625 C1022.60597931 258.34991638 1022.27445862 259.07483276 1021.93289185 259.82171631 C1017.10749298 270.37460596 1012.29818823 280.93471311 1007.5 291.5 C1000.3654314 307.20983888 993.19445105 322.90289433 986.01611328 338.59277344 C984.00864757 342.98075758 982.00220706 347.36920992 979.99609375 351.7578125 C979.66629517 352.47928467 979.33649658 353.20075684 978.9967041 353.9440918 C977.99778541 356.12938661 976.99888837 358.31469132 976 360.5 C972.32571894 368.53837399 968.65141659 376.5767373 964.97433472 384.61383057 C958.13254338 399.56818823 951.30010245 414.52663301 944.5 429.5 C939.36886644 440.79841005 934.22333032 452.09012233 929.0625 463.375 C928.73105988 464.09975525 928.39961975 464.8245105 928.05813599 465.57122803 C925.36927287 471.45052923 922.67946729 477.32939914 919.98962402 483.20825195 C917.63847591 488.34696673 915.28770025 493.48585165 912.9375 498.625 C912.60597931 499.34991638 912.27445862 500.07483276 911.93289185 500.82171631 C907.10749298 511.37460596 902.29818823 521.93471311 897.5 532.5 C892.36886644 543.79841005 887.22333032 555.09012233 882.0625 566.375 C881.73105988 567.09975525 881.39961975 567.8245105 881.05813599 568.57122803 C878.36927287 574.45052923 875.67946729 580.32939914 872.98962402 586.20825195 C870.63847591 591.34696673 868.28770025 596.48585165 865.9375 601.625 C865.60597931 602.34991638 865.27445862 603.07483276 864.93289185 603.82171631 C860.10749298 614.37460596 855.29818823 624.93471311 850.5 635.5 C845.36886644 646.79841005 840.22333032 658.09012233 835.0625 669.375 C834.73105988 670.09975525 834.39961975 670.8245105 834.05813599 671.57122803 C831.36927287 677.45052923 828.67946729 683.32939914 825.98962402 689.20825195 C823.63847591 694.34696673 821.28770025 699.48585165 818.9375 704.625 C818.60597931 705.34991638 818.27445862 706.07483276 817.93289185 706.82171631 C813.10749298 717.37460596 808.29818823 727.93471311 803.5 738.5 C798.36886644 749.79841005 793.22333032 761.09012233 788.0625 772.375 C787.73105988 773.09975525 787.39961975 773.8245105 787.05813599 774.57122803 C784.36927287 780.45052923 781.67946729 786.32939914 778.98962402 792.20825195 C776.63847591 797.34696673 774.28770025 802.48585165 771.9375 807.625 C771.60597931 808.34991638 771.27445862 809.07483276 770.93289185 809.82171631 C766.10749298 820.37460596 761.29818823 830.93471311 756.5 841.5 C749.3654314 857.20983888 742.19445105 872.90289433 735.01611328 888.59277344 C733.00864757 892.98075758 731.00220706 897.36920992 728.99609375 901.7578125 C728.50139587 902.84002075 728.50139587 902.84002075 727.9967041 903.9440918 C726.99778541 906.12938661 725.99888837 908.31469132 725 910.5 C721.32571894 918.53837399 717.65141659 926.5767373 713.97433472 934.61383057 C707.13254338 949.56818823 700.30010245 964.52663301 693.5 979.5 C688.36886644 990.79841005 683.22333032 1002.09012233 678.0625 1013.375 C677.73105988 1014.09975525 677.39961975 1014.8245105 677.05813599 1015.57122803 C674.36927287 1021.45052923 671.67946729 1027.32939914 668.98962402 1033.20825195 C666.63847591 1038.34696673 664.28770025 1043.48585165 661.9375 1048.625 C661.60597931 1049.34991638 661.27445862 1050.07483276 660.93289185 1050.82171631 C656.10749298 1061.37460596 651.29818823 1071.93471311 646.5 1082.5 C641.36886644 1093.79841005 636.22333032 1105.09012233 631.0625 1116.375 C630.73105988 1117.09975525 630.39961975 1117.8245105 630.05813599 1118.57122803 C627.36927287 1124.45052923 624.67946729 1130.32939914 621.98962402 1136.20825195 C619.63847591 1141.34696673 617.28770025 1146.48585165 614.9375 1151.625 C614.60597931 1152.34991638 614.27445862 1153.07483276 613.93289185 1153.82171631 C608.8008495 1165.04521887 603.6869246 1176.27686072 598.58557129 1187.51434326 C594.92745267 1195.5725274 591.25921016 1203.62593933 587.57421875 1211.671875 C587.20648346 1212.4750415 586.83874817 1213.27820801 586.45986938 1214.10571289 C584.67535882 1218.00284846 582.88951938 1221.89936625 581.1015625 1225.79492188 C580.45698848 1227.20180332 579.81245511 1228.60870339 579.16796875 1230.015625 C578.87597092 1230.65054871 578.58397308 1231.28547241 578.28312683 1231.93963623 C576.76028508 1235.26724718 575.36070838 1238.59822905 574 1242 C569.71 1242 565.42 1242 561 1242 C552.85443303 1224.9034764 544.82304188 1207.76867762 537.1875 1190.4375 C531.43801923 1177.38812471 525.52525804 1164.42432299 519.5 1151.5 C513.20399827 1137.9927855 507.04185972 1124.43752863 501.03076172 1110.80126953 C495.6626292 1098.63332275 490.11841315 1086.55425474 484.5 1074.5 C478.2043034 1060.99263971 472.04186269 1047.43753537 466.03076172 1033.80126953 C460.6626292 1021.63332275 455.11841315 1009.55425474 449.5 997.5 C443.2043034 983.99263971 437.04186269 970.43753537 431.03076172 956.80126953 C425.6626292 944.63332275 420.11841315 932.55425474 414.5 920.5 C408.2043034 906.99263971 402.04186269 893.43753537 396.03076172 879.80126953 C390.6626292 867.63332275 385.11841315 855.55425474 379.5 843.5 C373.2043034 829.99263971 367.04186269 816.43753537 361.03076172 802.80126953 C355.6626292 790.63332275 350.11841315 778.55425474 344.5 766.5 C338.2043034 752.99263971 332.04186269 739.43753537 326.03076172 725.80126953 C320.6626292 713.63332275 315.11841315 701.55425474 309.5 689.5 C303.2043034 675.99263971 297.04186269 662.43753537 291.03076172 648.80126953 C285.6626292 636.63332275 280.11841315 624.55425474 274.5 612.5 C268.2043034 598.99263971 262.04186269 585.43753537 256.03076172 571.80126953 C250.6626292 559.63332275 245.11841315 547.55425474 239.5 535.5 C233.2043034 521.99263971 227.04186269 508.43753537 221.03076172 494.80126953 C215.6626292 482.63332275 210.11841315 470.55425474 204.5 458.5 C198.2043034 444.99263971 192.04186269 431.43753537 186.03076172 417.80126953 C180.6626292 405.63332275 175.11841315 393.55425474 169.5 381.5 C163.2043034 367.99263971 157.04186269 354.43753537 151.03076172 340.80126953 C145.6626292 328.63332275 140.11841315 316.55425474 134.5 304.5 C128.2043034 290.99263971 122.04186269 277.43753537 116.03076172 263.80126953 C110.6626292 251.63332275 105.11841315 239.55425474 99.5 227.5 C93.2043034 213.99263971 87.04186269 200.43753537 81.03076172 186.80126953 C75.6626292 174.63332275 70.11841315 162.55425474 64.5 150.5 C58.2043034 136.99263971 52.04186269 123.43753537 46.03076172 109.80126953 C40.27874196 96.76316547 34.31518879 83.83050707 28.29483032 70.91442871 C21.7945791 56.96129897 15.45969912 42.94217743 9.25 28.85742188 C8.94325348 28.16245605 8.63650696 27.46749023 8.32046509 26.75146484 C7.72781908 25.40637304 7.13723655 24.06036981 6.54891968 22.71337891 C5.14807679 19.52108456 3.70407715 16.3654786 2.15087891 13.24414062 C1.58159668 12.08591797 1.01231445 10.92769531 0.42578125 9.734375 C-0.08944092 8.72084961 -0.60466309 7.70732422 -1.13549805 6.66308594 C-2 4 -2 4 0 0 Z " fill="#000066" transform="translate(262,425)"/>
<path d="M0 0 C1.26094482 0.403396 1.26094482 0.403396 2.54736328 0.81494141 C42.49710523 13.63492729 78.57799203 34.5971532 111 61 C111.55139648 61.44553223 112.10279297 61.89106445 112.67089844 62.35009766 C121.92853328 69.89466282 130.41725336 78.209848 138.875 86.625 C139.40920563 87.1539386 139.94341125 87.6828772 140.49380493 88.22784424 C147.4679723 95.14878597 153.9034179 102.27796965 160 110 C161.02486691 111.25463149 162.05190868 112.50749259 163.08203125 113.7578125 C212.46421172 174.40135589 246.65649558 255.70744882 248.859375 334.5390625 C248.93246624 337.96594833 248.93246624 337.96594833 249.49829102 341.18164062 C250.04517624 345.34382304 250.1612165 349.36404239 250.16796875 353.5546875 C250.17445686 354.76926384 250.17445686 354.76926384 250.18107605 356.00837708 C250.19116994 358.63064471 250.19125613 361.25271682 250.1875 363.875 C250.18623108 364.77658844 250.18496216 365.67817688 250.18365479 366.60708618 C250.07843352 405.80983379 245.54326975 447.53964964 232.17578125 484.65625 C231.25009107 487.28877756 230.44470807 489.89152306 229.67578125 492.5703125 C227.77373363 498.97987 225.33493143 505.16227665 222.875 511.375 C222.63256561 511.98804993 222.39013123 512.60109985 222.14035034 513.23272705 C209.72069085 544.57881574 194.19559659 573.92896087 174 601 C173.59571777 601.54317871 173.19143555 602.08635742 172.77490234 602.64599609 C156.53043193 624.36323696 137.99213886 646.15895023 116.61328125 662.9453125 C113.82068253 665.14098803 111.1356131 667.43944077 108.4375 669.75 C95.17211007 680.79022775 80.93852525 690.38266449 66 699 C65.15453613 699.48855469 64.30907227 699.97710938 63.43798828 700.48046875 C22.54336636 723.90473958 -20.53106116 736.16824074 -67 742 C-68.287854 742.18103271 -69.57570801 742.36206543 -70.90258789 742.54858398 C-75.27617932 743.09146158 -79.60869021 743.16122404 -84.01171875 743.16796875 C-84.85401535 743.1721582 -85.69631195 743.17634766 -86.56413269 743.18066406 C-89.2719701 743.19038538 -91.97964813 743.19046356 -94.6875 743.1875 C-95.61073059 743.18722809 -96.53396118 743.18695618 -97.48516846 743.18667603 C-110.76552804 743.16862382 -123.83188288 742.8488358 -137 741 C-138.44651586 740.82600024 -139.89313147 740.65282779 -141.33984375 740.48046875 C-198.19129491 733.13671247 -252.48888751 707.54914353 -297 672 C-297.92941406 671.26394531 -298.85882812 670.52789063 -299.81640625 669.76953125 C-306.25890967 664.59170133 -312.37078346 659.09837383 -318.41455078 653.46777344 C-320.06680046 651.93815763 -321.73279377 650.42476578 -323.40234375 648.9140625 C-328.63379005 644.16674691 -333.73860288 639.46603292 -338.27734375 634.03515625 C-340.35968587 631.575065 -342.55491676 629.23497212 -344.75 626.875 C-350.52911563 620.52058779 -355.82707268 613.85391494 -361 607 C-361.50934082 606.32582031 -362.01868164 605.65164063 -362.54345703 604.95703125 C-390.84969559 567.22700338 -412.02007662 524.34405578 -425 479 C-425.23138672 478.20948242 -425.46277344 477.41896484 -425.70117188 476.60449219 C-429.98810725 461.88972569 -433.36445659 447.09648089 -436 432 C-436.19899902 430.93442871 -436.39799805 429.86885742 -436.60302734 428.77099609 C-440.21978742 408.80920564 -440.37225321 388.84708419 -440.375 368.625 C-440.37690338 367.30754791 -440.37880676 365.99009583 -440.38076782 364.63272095 C-440.3770678 341.97501465 -439.73132035 319.29228295 -435.75 296.9375 C-435.4257605 295.06819824 -435.4257605 295.06819824 -435.0949707 293.16113281 C-422.18659331 220.83740407 -390.25613836 151.76318398 -340.328125 97.546875 C-338.38199408 95.41788614 -336.49426568 93.25843347 -334.625 91.0625 C-327.40066647 82.7622019 -319.40890557 75.08598553 -311 68 C-310.07058594 67.19304687 -309.14117188 66.38609375 -308.18359375 65.5546875 C-290.19248394 49.99908009 -270.72542858 36.63717873 -250 25 C-249.21947266 24.56042969 -248.43894531 24.12085938 -247.63476562 23.66796875 C-172.93849859 -17.96995039 -81.19816363 -26.81622941 0 0 Z M-160 106 C-160.93440918 106.38720215 -161.86881836 106.7744043 -162.83154297 107.17333984 C-188.74771302 117.94118089 -213.10843116 130.09414089 -234 149 C-234.56106445 149.50466797 -235.12212891 150.00933594 -235.70019531 150.52929688 C-245.26688422 159.15763963 -254.84303491 167.97770415 -263.15625 177.83984375 C-264.5126679 179.42903675 -265.91594205 180.97853142 -267.34375 182.50390625 C-288.59826242 205.97763982 -302.5103308 237.81225438 -314 267 C-314.42474609 268.06621582 -314.84949219 269.13243164 -315.28710938 270.23095703 C-321.84746397 286.94969014 -325.20302048 303.16094083 -327 321 C-327.11424316 322.04526855 -327.22848633 323.09053711 -327.34619141 324.16748047 C-330.6954243 355.45179662 -329.48188058 386.80165705 -326 418 C-325.82806159 419.78645223 -325.65617737 421.57290968 -325.484375 423.359375 C-320.394776 469.07445116 -290.77169816 521.35769526 -259.47167969 554.42675781 C-258.06546971 555.93001214 -256.68814215 557.45401287 -255.3203125 558.9921875 C-239.53075494 576.65587653 -222.20810989 591.2795387 -201.42041016 602.67236328 C-199.10784726 603.94084392 -196.80985357 605.23296872 -194.51171875 606.52734375 C-181.20446697 613.8911434 -167.20169086 619.59735057 -153 625 C-152.21471924 625.30413818 -151.42943848 625.60827637 -150.62036133 625.92163086 C-115.52942031 638.67874458 -59.38629739 634.68337951 -26 620 C-25.00983887 619.57090332 -24.01967773 619.14180664 -22.99951172 618.69970703 C17.65521013 600.95212311 52.64835421 576.4770301 80 541 C80.65742188 540.22140625 81.31484375 539.4428125 81.9921875 538.640625 C87.89816063 531.6086103 92.48713285 523.95889943 97 516 C97.68884277 514.7927124 97.68884277 514.7927124 98.39160156 513.56103516 C115.09253195 484.13053275 131.00439034 451.8977946 134.88037109 417.94995117 C135.12278017 415.83189582 135.37867538 413.71581074 135.63671875 411.59960938 C137.46747361 396.29164033 138.20987311 381.03592954 138.1875 365.625 C138.18689575 364.84519775 138.1862915 364.06539551 138.18566895 363.26196289 C138.15613841 349.09738942 137.53208265 335.08910981 136 321 C135.8870459 319.87722656 135.7740918 318.75445313 135.65771484 317.59765625 C128.73223997 251.06859638 87.92647567 185.97296266 36.9375 143.75 C35.30115475 142.48760482 33.65595753 141.23655652 32 140 C31.23171875 139.37996094 30.4634375 138.75992188 29.671875 138.12109375 C3.45144016 117.71367984 -33.85052928 100.69081153 -67 98 C-68.06903564 97.91008789 -69.13807129 97.82017578 -70.23950195 97.72753906 C-99.15612802 95.46462131 -132.90961942 94.36420209 -160 106 Z " fill="#FFFEFE" transform="translate(2816,705)"/>
</svg>
